<svg version="1" xmlns="http://www.w3.org/2000/svg" width="160" height="160" viewBox="0 0 120.000000 120.000000"><path d="M50.7 14.3c-.4 1.1 0 1.5 1.4 1.2 1.1-.2 1.7 0 1.4.6-.4.5-1.1.7-1.6.4-.5-.4-.9 0-.9.7s-.7.2-1.6-1c-1-1.5-2-2-2.7-1.4-.7.5-2 .8-3 .7-1.4-.3-1.6 0-.7 1 .8.9.8 1.5 0 2-.5.3-1 .1-1-.4 0-.6-.4-1.1-.9-1.1s-.8.6-.7 1.2c0 .7-.3 1.5-.9 1.6-.5.2-1.5.8-2.2 1.3-.7.6-1.3.6-1.7 0-.7-1.1-3.2-.9-4.3.4-.4.4-.3.5.3.2.7-.4 1.4-.1 1.7.7.7 1.8-2.2 1.4-3.4-.5-.6-.9-.7-.4-.5 1.6.4 2.7.1 3.1-2.2 3.3-5.1.3-6.2.5-6.2 1.4 0 1.1.7 1 3.3-.3 2.2-1 2.2-1 0 1-1.3 1-3.1 1.8-4 1.7-1-.2-1.2-.1-.5.1 1.8.6 1.5 2.3-.4 2.3-1.4 0-1.4.3-.4 1.5 1.1 1.3 1 1.4-.1 1-.8-.3-2.3.1-3.4.9-2 1.4-2 1.4 0 3.7 1.1 1.2 1.5 1.9.8 1.6-.6-.4-1.3-.4-1.6 0-.2.5-.3.3-.1-.3.1-.6-.4-1.1-1.1-1.1-1.3 0-1.4 1.4-.2 3.4.4.6.3 1.5-.3 1.8-.8.5-.7 1.2.2 2.3 1.2 1.6 1.1 1.6-.6.2-1.8-1.4-1.9-1.3-1.4.7.5 1.7.2 2.3-1 2.4-1 0-1.2.3-.5.5.7.3.9 1.2.6 2-.3.7-.9 1.2-1.3.9-.5-.3-1.2 0-1.6.6-.4.8-.3.9.4.5s1.2-.2 1.2.5c0 .6.9.1 2-1.2l2-2.4-1.7 3.1c-1.1 2-2.3 3-3.3 2.7-1.3-.4-1.3-.4 0 .6 1.2.9 1.3 1.3.2 2s-1 .9.3 1.4c.9.4 1.3.3 1-.2-.3-.5-.1-1.2.4-1.5.5-.4.8.2.7 1.1-.2 1.1-1.1 1.8-2.4 1.7-1.2-.1-1.9.3-1.6.7.3.5 1 .6 1.6.3.7-.5.9.2.6 2-.4 2.1-.3 2.4.8 1.5.8-.6 1.1-1.6.7-2.2-.4-.6-.1-.7.6-.2.9.5 1 1 .2 1.8s-.6 1.6.5 2.8c1.2 1.3 1.2 1.9.3 2.5-.8.5-1 .3-.4-.7.5-.8.4-1.1 0-.7-.5.5-1 2-1.1 3.4-.3 2.5-.2 2.5 1.2.8.9-1.1 1.3-1.3.9-.6-.4.7-.1 2 .7 2.9 1.1 1.4 1 1.5-1.2.9-1.7-.5-2.1-.4-1.1.2.8.6 1 1.5.6 2.3-.6 1.1-.5 1.2.6.2 1.6-1.6 3.7-1.7 2.2-.2-1.3 1.3-.6 3.9.9 3.9.7 0 .6-.5-.1-1.3-.8-1-.7-1.4.2-1.4.7 0 1.4 1.1 1.5 2.4.1 1.4-.2 2.1-.8 1.8-.6-.4-.7.1-.3 1.1.4 1.1.8 1.3 1.1.6.2-.7.8-1.2 1.4-1.2.6 0 .7.7.4 1.6-.4 1.1-.2 1.5.7 1.1.8-.3 2-.1 2.8.5 1.1.8 1.1.9-.3.4-1.3-.4-1.5-.1-1.1 1.2.7 1.8 2.2 3.2 3.7 3.2.6 0 .1-.7-1-1.6-1.8-1.4-1.8-1.5.4-.4 2 1 2.1 1.4 1 2.7-1.1 1.4-1 1.6.9 1.1 1.6-.4 2-.2 1.6.8-.3.9.1 1.4 1.2 1.4.9 0 1.3-.5 1-1-.3-.6-.1-1 .5-1 .7 0 .9.8.5 2.1-.6 1.9-.5 2 1.5.9 1.3-.7 2-.8 1.6-.2-.3.6-.2 1.3.4 1.7.5.3 1 .1 1-.5s.5-.8 1.1-.4c.8.4.3 1.2-1.2 2.1-2.3 1.3-2.3 1.4-.1.8 1.2-.4 2.2-.2 2.2.3 0 1.5 2.8 2.3 3.6 1 .5-.7.2-.8-.6-.3-.9.5-1.1.4-.6-.4 1-1.5 2.7-.4 2 1.3-.3.7.2 1.3 1 1.3s1.2-.7.9-1.6c-.3-1.1 0-1 1.1.3 1.6 2 1.6 2 1.7 0 0-1.8.1-1.8.9.1.6 1.4.9 1.5 1 .5.1-1 .4-.9 1 .5.7 1.6.9 1.7.9.3.1-2.2 1.7-3.2 2.7-1.7.4.8.3.9-.4.5s-1.2-.2-1.2.3c0 .6.7 1.1 1.6 1.1.8 0 1.3.4 1 .9-.4.5.2.8 1.1.7 1-.2 1.8-.8 1.8-1.4 0-.6.3-1.3.7-1.7.3-.4.5.5.4 1.9-.2 1.4 0 2.6.3 2.7.3 0 1.4.2 2.4.4.9.2 1.5-.1 1.1-.6-.3-.5-1-.7-1.5-.4-.5.4-.9-.4-.9-1.7 0-1.8.2-2 1-.8.7 1.1 1 1.2 1 .2 0-.8.6-1.2 1.3-.9.6.2 2.1-.3 3.1-1.2 1.8-1.5 1.8-1.5.8.6-1 1.7-.9 2.1.3 1.9.8-.1 1.8-.6 2.2-1.1.4-.4.2-.5-.6 0-1 .6-1.2.4-.7-.4.4-.7 1.5-1.1 2.4-.9 1 .1 2.3-.1 3.1-.6.9-.6 1.2-.5.8.1-.4.6 0 1.3.8 1.6.9.4 1.2.1.9-.7-.3-.8 0-1.7.7-2.2.8-.4 1-.3.5.4-.4.7-.3 1.2.2 1.2.6 0 1.3-.7 1.6-1.6.5-1.4.9-1.4 2.3-.3 1.4 1.2 1.6 1.2.8 0-.6-1-.4-1.3.6-.9 2.1.8 5.3-1.7 4.3-3.4-.6-1-.4-1 .9.1 1.7 1.3 1.8 1.3 2.1-1.1 0-.7.8-1.3 1.6-1.4 2.9-.2 3.1-.4 1.9-2.7-.9-1.8-.9-2 .1-1 1.5 1.4 4-.5 4-3.1 0-.9.6-1.3 1.4-1 .7.3 1.6-.2 2-1.1.3-.9 1-1.4 1.5-1.1 1.1.7.8-2-.4-3.1-.4-.4-.5-.3-.1.4.6 1.1-2.2 3.3-4.1 3.3-.4-.1.2-.6 1.4-1.3 1.2-.7 2.2-1.7 2.3-2.2.1-.6.8-.9 1.7-.7.8.2 1.2-.1.9-.7-.4-.6.1-2.2 1-3.6 1.3-1.9 1.3-2.5.3-2.2-.8.2-1 .2-.6-.1.4-.2.2-1.1-.5-2-.8-1-.9-1.3-.1-.9 1.4.9 2.8-1 2.8-4 0-1.2 1-3 2.1-4 1-1 1.5-1.5 1-1.1-1.5 1.2-2.3 1-2.3-.7 0-.8.4-1.2.9-.9.4.3.8.1.8-.5 0-.5-.6-1.1-1.2-1.3-.7-.3-1.1-1.8-1-3.7.2-2.4-.1-3-1-2.5-1 .6-1 .4 0-.8 1.1-1.4 1-1.8-.5-2.7-1-.6-1.4-1.1-1-1.1.4 0 1.9.7 3.2 1.6 1.5 1 2.5 1.2 2.5.5 0-.6-.7-1.1-1.6-1.1-1.1 0-1.4-.6-.9-2 .4-1.2.2-2-.5-2-.6 0-.8.4-.5 1 .3.5.1 1-.4 1-.6 0-1.1-.6-1.1-1.4 0-.8-.3-2.3-.7-3.3-.6-1.6-.5-1.7 1.3-.3s1.8 1.4.5-.2c-1.4-1.9-3.1-1.5-3.1.7 0 .8-.4 1.7-1 2-.6.4-.7-.2-.1-1.7.4-1.3 1.1-3.7 1.5-5.3l.6-3-1.5 2.5c-1.1 2-1.4 2.1-1.5.7 0-1.1-.4-1.5-1.2-1.1-.7.4-.8.3-.4-.5.4-.6 1.1-.9 1.5-.7.4.3.8-.1.8-.7 0-.7-.9-1.4-1.9-1.4-1.8-.2-5.7-3.3-4.1-3.3.5 0 1.3.4 1.9 1 .6.6 1.5.5 2.4-.1 1.3-.9 1.2-1-.2-.6-1.9.7-4.2-1.5-3-2.9.4-.4 0-.3-.9.4-1.4 1-1.8 1-2.3-.3-.3-.9-1.1-1.3-1.7-.9-.8.4-.9.3-.5-.5.6-.9 1.2-.9 2.4.1 1.5 1.2 1.6 1.1.3-.4-.7-1-1.7-1.5-2.2-1.2-.5.3-.9 0-.9-.5 0-.6-.4-1.1-1-1.1-.5 0-.7.8-.4 1.7.5 1.4.4 1.5-.4.4-.6-.8-.8-2.1-.5-3 .4-1.3.2-1.2-1 .2-1.4 1.7-1.5 1.6-2.5-1.2-.6-1.6-.7-3.3-.4-3.7.4-.5 0-.4-.8.2-2.9 2.1-5 2.4-5 .8 0-.8.5-1.2 1-.9.6.3 1 .1 1-.5s-1.2-.8-3-.5c-3.3.6-4-1-1.7-3.5 1-1.2.9-1.2-.5-.1-1 .7-1.8 2.1-1.9 3 0 1.2-.2 1.1-.8-.4-.5-1.1-.6-2.4-.3-2.9s0-.6-.7-.2c-.6.4-.9 1.2-.6 1.7.4.5-.1.9-.9.9s-1.7-.8-1.9-1.8c-.4-1.6-.5-1.6-.6 0 0 1-.6 1.8-1.2 1.8s-.9-.6-.6-1.4c.4-1 0-1.4-1.3-1.1-1.1.2-2.2-.1-2.5-.6-.8-1.2-2.5-.2-2.5 1.4 0 .7.4.6 1-.3.6-.9 1-1 1-.3 0 2.1-1.7 2.3-3.5.3-1-1.1-2.3-2-2.9-2-.8 0-.8.2 0 .8 1.3.8 1.5 4.4.2 3.6-.5-.3-.6-1-.3-1.5.6-.8-.2-1.1-2.1-.8-.4 0-1-.5-1.4-1.1-.5-.8-.9-.7-1.3.3zm-3.1 1.6c-.4.5 0 1.2.6 1.5.7.2.3.4-.9.2-1.2-.1-2.6-.6-3-1.1-.5-.4-.3-.5.4-.1.6.3 1.4.2 1.8-.4.3-.5.8-1 1.1-1 .3 0 .3.4 0 .9zM65 16c0 .5-.5 1-1.1 1-.5 0-.7-.5-.4-1 .3-.6.8-1 1.1-1 .2 0 .4.4.4 1zm-6.7 21.6c-.3.9 0 1.4.8 1.2.8-.2 1.3.3 1.1 1-.1.8.2 1.1.8.7.7-.4.6-1.3-.2-2.8-1-1.9-.9-2 .4-1 .8.7 1.9.9 2.3.5.5-.4.5-.2.2.4-.6 1.1.6 2.1 2.7 2.2.5 0 1.3.6 1.8 1.4.7 1 .8.9.4-.5-.3-.9-.1-1.7.4-1.7.6 0 1 .4 1 1 0 .5 1.2 1.6 2.8 2.4 1.5.8 2.3 1.5 1.9 1.6-.4 0-.2.6.5 1.4.7.8 1.6 1.2 2 1 .4-.2 1 .1 1.4.7.4.7.3.9-.3.6-.6-.4-1.3.1-1.5 1.1-.3 1.1 0 1.9.8 1.9.7 0 1-.5.7-1-.3-.6-.1-.7.5-.4.5.4.8 1.6.5 2.7-.3 1.1-.9 1.7-1.4 1.4-1.6-1-.9.3 1.2 2.2 1.1 1 2 1.4 1.9.9-.4-1.9 0-2.6 1-2 .6.4.7 1.2.3 1.8-.4.7-.9 1.8-1 2.4-.6 2.4-1.1 4.8-1.3 5.3-.1.3-.2.9-.1 1.3s-.6 1-1.4 1.3c-1.9.8-2 2.1-.1 2.1.8 0 1.5-.3 1.4-.6-.1-1.6.3-2.2 1.2-1.6.6.4.7 1.2.3 1.8-.4.7-.8 1.5-.9 1.9-.1.5-.2 1.1-.3 1.4 0 .4-.9 0-1.8-.7-.9-.8-1.4-.9-1-.2.4.6 0 1.9-.9 2.7-.8.9-1.2 1.6-.7 1.6s1.5-.6 2.2-1.3c1-1 1.1-.9.6.5-.4 1-1.1 1.8-1.6 1.8s-.9.6-.9 1.4c0 .8-.7 1.7-1.6 2-.8.3-1.3 1-1 1.5.3.5-.3.7-1.4.4-1.1-.3-1.7-1-1.3-1.6.3-.6.1-.7-.6-.3-.9.6-.9 1.1.1 2.4 1.1 1.3 1.1 1.4-.2 1-.9-.3-2 .4-2.6 1.5-.8 1.3-2.3 2.1-4.8 2.3-2.5.1-3.4-.2-2.9-1s.2-.7-.8.1c-1 .8-1.9.9-2.9.1-1.2-.8-1.1-.9.5-.3 1.1.3 1.6.2 1.1-.2-.4-.4-1.8-.8-2.9-.8-1.3 0-2.1-.5-1.9-1.3.1-.8-.2-1.1-.8-.7-.5.3-1 .2-1-.3s-.7-.9-1.5-.9-1.4.1-1.2.3c.1.1 1.9 1.6 4.1 3.3 2.1 1.7 3.4 3.1 2.8 3.1-.6 0-1.4-.5-1.7-1-.4-.6-1.1-.8-1.6-.4-.5.3-.8.1-.7-.4.2-.6-.1-1-.5-1-.5-.1-1.6-1-2.6-2.1-1.4-1.6-2-1.8-3-.8-1 .9-1.1.8-.6-.5.9-2.2-2.5-6.6-4.5-6-1.3.5-1.3.3-.1-1.2.8-.9 1-1.6.5-1.5-.5.1-1.6.1-2.4 0-1.3-.1-1.3-.2 0-1.1 1.3-.9 1.3-1 0-1.1-.8-.1-1.9-.1-2.5.1-.5.1-.4-.4.3-1.1.6-.7 1.2-1.7 1.2-2.2 0-.4-.6-.5-1.2-.1-.7.4-.4-.2.6-1.4 2.1-2.4 2.1-2.4-.9-4l-2-1.1 2-.2c1.1-.1 2.3-.1 2.8 0 1.2.2.8-.6-1-2-.9-.8-1.4-.9-1-.3.3.6 0 1.1-.8 1.1s-1.1-.5-.7-1.1c.4-.6.7-1.8.7-2.6s.6-2.4 1.4-3.5c1-1.6 1.1-1.7.7-.2-.4 1.1-.2 1.6.5 1.1.6-.3.8-1.5.6-2.6-.4-1.5-.2-1.8 1.6-1.2 2.2.6 2.2.6.2-1.1-2-1.6-2-1.6.1-1.2 1.9.4 2.2 0 2-2.4-.2-2.5 0-2.7 1.8-1.7 2 1 2 1 .6-.7s-1.4-1.8 1-.5c2.3 1.2 2.4 1.2 1.2-.3-1.2-1.4-1-1.7 1.2-2.3 1.5-.3 3.1-1.4 3.7-2.3.9-1.4 1-1.4.5.1-.6 2.1-.5 2.2 2.8.7 1.4-.7 2.3-1.6 1.9-2.2-.3-.6-.1-.7.5-.3.6.4.9 1.3.5 2.2zm-39.9.3c-.9.9-3.4.9-3.4.1 0-.5.9-.8 2-.7 1 .1 1.7.3 1.4.6zm48.6.7c0 .8-.5 1.2-1 .9-.6-.4-.8-1.1-.5-1.6.9-1.4 1.5-1.1 1.5.7zm15.5 24.3c0 1.8-.4 2.7-1.2 2.4-.7-.3-1-1-.6-1.7.4-.6.8-1.4.9-1.9.5-2.8 1-2.2.9 1.2zM37 64.6c0 .2-.7.4-1.5.4s-1.5-.4-1.5-1c0-.5.7-.7 1.5-.4.8.4 1.5.8 1.5 1zm7 15.6c0 .5-.7.3-1.5-.6-.8-.8-1.5-1.8-1.5-2.2 0-.3.7-.1 1.5.6s1.5 1.7 1.5 2.2zm41 19.6c0 1.3-1.2 2.2-2.2 1.6-1-.6-.1-2.4 1.3-2.4.5 0 .9.4.9.8zm-29.6 6.8c.3.8.2 1.2-.4.9-.6-.3-1-1-1-1.6 0-1.4.7-1.1 1.4.7z"/><path d="M55.5 39c-.3.5-.1 1 .4 1 .6 0 1.1-.5 1.1-1 0-.6-.2-1-.4-1-.3 0-.8.4-1.1 1zM50 40c-.9.6-1 1-.3 1 .6 0 1.5-.5 1.8-1 .8-1.2.4-1.2-1.5 0zM36.3 55.5c0 .8.4 1.5.9 1.5.4 0 .8-.4.8-.9 0-.6-.4-1.2-.8-1.5-.5-.3-.9.1-.9.9zm42.1 3.6c0 1.3.3 1.5 1.3.7.7-.6 1.3-1.2 1.3-1.3 0-.2-.6-.5-1.3-.8-.7-.3-1.3.3-1.3 1.4zm-40.8 9.6c-.6 1.4-.5 1.5.5.6.7-.7 1-1.5.7-1.8-.3-.3-.9.2-1.2 1.2zm35 9.9c-.5 1.4-.4 1.5.9.4 1.7-1.4 1.9-2 .6-2-.5 0-1.2.7-1.5 1.6zM65.5 82c-.3.5-.1 1 .4 1 .6 0 1.1-.5 1.1-1 0-.6-.2-1-.4-1-.3 0-.8.4-1.1 1zm-4 1.9c-.3.5-.2 1.2.3 1.5.5.3.9-.1.9-.9 0-1.7-.3-1.9-1.2-.6zm3 1.1c.3.5.8 1 1.1 1 .2 0 .4-.5.4-1 0-.6-.5-1-1.1-1-.5 0-.7.4-.4 1zm-27-67c-.4.6-1.1.8-1.6.5-.5-.3-.6.1-.2 1 .4 1.2.8 1.3 1.3.5.4-.7 1.3-1 1.9-.6.7.5.9.1.5-.8-.7-1.9-1.1-2-1.9-.6zm48.6 4.6c0 1.1.3 1.4.6.6.3-.7.2-1.6-.1-1.9-.3-.4-.6.2-.5 1.3zm-60 1.1c-.1 1.7 1.6 2.5 2.5 1.2.4-.7.3-.9-.4-.5-.5.3-1.3 0-1.5-.6-.4-.9-.6-1-.6-.1zM10.3 44.5c0 .7.6 1.1 1.4.8.7-.3 1.3-.6 1.3-.8 0-.2-.6-.5-1.3-.8-.8-.3-1.4.1-1.4.8zm98.4 10.2c-1 .9-.9 2.3.1 2.3.5 0 .9-.7.9-1.5 0-1.7-.1-1.8-1-.8zm-1.1 4.5c.3.5 1 .6 1.5.3 1.3-.9 1.1-1.2-.6-1.2-.8 0-1.2.4-.9.9zm.1 11.6c.1.3-.4 1.3-1.2 2.2-1.4 1.6-1.4 1.8 0 2.4 1 .4 1.4.2.9-.5-.4-.6 0-1.5.7-2 1-.6 1.1-1.1.3-1.7-.6-.5-.9-.7-.7-.4zm-28.4 34.1c0 1.1.5 1.8.9 1.5.4-.3.5-1.1.1-1.9-.7-2.1-1.2-1.9-1 .4zm-17.3 3c0 .5.7 1.2 1.6 1.5 1.4.5 1.5.4.4-.9-1.4-1.7-2-1.9-2-.6z"/></svg>