<svg xmlns="http://www.w3.org/2000/svg" width="90" height="127.046" viewBox="0 0 90 127.0465"><path d="M26.11 121.946l-17.39-4.893-.567-.567-.566-.566L3.83 74.21.074 32.5l-.037-4.25L0 24h90v1.5l-4 44.252-4 44.253v2.655l-18.75 5.193-18.75 5.193-.5-.103-.5-.103zm30.776-17.913l10.382-2.968.349-.349.349-.348 2.517-27.183L73 46.003V43H15.767l.603 2.25.603 2.25.013 3.25L17 54h44.258l-.694 5.232-.694 5.232-.311.31-.31.311-20.612.614-20.61.615.57 4.093.57 4.093.433 1.376.434 1.376 19.526-.444 19.525-.444-.657 7.068-.656 7.068-1.136 1.175-1.136 1.174-5.5 1.373-5.5 1.373-5.94-1.616-5.939-1.616-.229-.931-.228-.932-.627-3.75-.628-3.75H19.896l.685 8.75.685 8.75.219.269.219.268 9.898 2.868 9.898 2.868 2.502.113 2.502.114zM20 9.5V0h11v4h-7v11h7v4H20zm15 7.555V15.11l4.637-.305 4.637-.305-4.637-5.683L35 3.135V0h15v3.885l-4.024.308-4.024.307 4.024 4.859L50 14.218V19H35zm19 0V15.11l4.62-.305 4.618-.305-4.619-5.601L54 3.298V0h15v3.885l-4.125.308-4.126.307 4.126 4.982L69 14.463V19H54z" fill="#141414"/></svg>