<svg xmlns="http://www.w3.org/2000/svg" width="90" height="127" viewBox="0 0 90 127"><path d="M44.285 126.898l-.785-.102-17.484-4.966-17.485-4.965-.27-.271-.271-.271-3.995-44.38L0 27.563V24h90l-.012 2.75-.011 2.75-3.93 43.358-3.929 43.357-.352.353-.353.352-18.172 5.04L45.07 127zm.29-19.968l2.077.07 10.206-2.865 10.206-2.865.686-.686.686-.687L69.65 87.2l1.216-12.7.067-4.25L71 66H30l-.01-1.75-.012-1.75-.617-3.73-.616-3.73 21.877-.27L72.5 54.5l.3-5.75.3-5.75H17v5.394l1.033 11.553L19.066 71.5l.52 3.29.52 3.291 19.484-.29 19.484-.291-.656 7-.656 7-.63.614-.632.614-4.693 1.136L47.114 95h-4.751l-5.181-1.539L32 91.923V83H19.983l.56 5.75.562 5.75.49 3.234.49 3.235 5.707 1.609 5.708 1.608 4.5 1.338 4.5 1.337 2.076.07zM11 17H8V0h6v5h5V0h6v17h-6v-6h-5v6zm24.667 0h-2.334l-.666-.667-.667-.666V5h-5V0h16v5h-5v12zM48.5 17H46V0h5.833l1.899 2.606 1.898 2.607 1.708-2.607L59.046 0H65v17h-5l-.056-4.25-.055-4.25-2.148 2.761-2.148 2.761-2.26-2.76L51.071 8.5l-.036 4.25L51 17zM75 17h-7V0h6v11h8v6z" fill="#141414"/></svg>