<svg xmlns="http://www.w3.org/2000/svg" viewBox="0 0 60 60" width="512" height="512"><g fill="#111"><path d="M32 3h-1a1 1 0 0 0 0 2h1a1 1 0 0 0 0-2z"/><path d="M48.102 0H11.898C9.749 0 8 1.777 8 3.961v52.078C8 58.223 9.749 60 11.898 60h36.203C50.251 60 52 58.223 52 56.039V3.961C52 1.777 50.251 0 48.102 0zm-19.72 58H11.898C10.852 58 10 57.12 10 56.039V52h18.382c-.84.734-1.382 1.8-1.382 3s.542 2.266 1.382 3zm-5.675-46.293l-3 3a.997.997 0 0 1-1.414 0 .999.999 0 0 1 0-1.414l3-3a.999.999 0 1 1 1.414 1.414zm.583 1.583c.37-.37 1.04-.37 1.42 0 .18.19.29.45.29.71 0 .26-.11.52-.29.71-.19.18-.45.29-.71.29-.26 0-.52-.11-.71-.29-.18-.19-.29-.45-.29-.71 0-.26.11-.52.29-.71zm-5.583-1.583l-4 4a.997.997 0 0 1-1.414 0 .999.999 0 0 1 0-1.414l4-4a.999.999 0 1 1 1.414 1.414zM18 16c0 .26-.11.52-.29.71-.19.18-.45.29-.71.29-.26 0-.52-.11-.71-.29-.18-.19-.29-.45-.29-.71 0-.26.11-.52.29-.71.38-.37 1.05-.37 1.42 0 .18.19.29.45.29.71zm-5.707 3.293l2-2a.999.999 0 1 1 1.414 1.414l-2 2a.997.997 0 0 1-1.414 0 .999.999 0 0 1 0-1.414zm0 5l9-9a.999.999 0 1 1 1.414 1.414l-9 9a.997.997 0 0 1-1.414 0 .999.999 0 0 1 0-1.414zm13-13l1-1a.999.999 0 1 1 1.414 1.414l-1 1a.997.997 0 0 1-1.414 0 .999.999 0 0 1 0-1.414zM31 57c-1.103 0-2-.897-2-2s.897-2 2-2 2 .897 2 2-.897 2-2 2zm19-.961C50 57.12 49.148 58 48.102 58H33.618c.84-.734 1.382-1.8 1.382-3s-.542-2.266-1.382-3H50v4.039zM50 6H10V3.961C10 2.88 10.852 2 11.898 2h36.203C49.148 2 50 2.88 50 3.961V6z"/></g></svg>