<svg xmlns="http://www.w3.org/2000/svg" viewBox="0 0 127.23785 180.06551" height="180.066" width="127.238"><path d="M59.149 179.643l-.423-.422-7.494-2.03-7.495-2.03-16-4.354-16-4.354-1.222-9.444-1.222-9.443-1.02-8.5-1.02-8.5-.007-7.104-.008-7.104-1.922-18.396-1.92-18.396-1.04-12-1.04-12-.658-9.75L0 36.066h127.238l-.012 1.75-.012 1.75-1.493 15.5-1.493 15.5-.489 3-.488 3-1.002 16-1.002 16-1.003 8.5-1.003 8.5-1.501 14.755-1.502 14.755v9.744l-1.25.966-1.25.967-19 5.247-19 5.248-4.932 1.408-4.931 1.409H59.57l-.422-.423zm18.494-30.64l11.094-3.063 3.433-1.203 3.432-1.203.766-2.864.766-2.864 1.054-16.62 1.054-16.62.637-5.25.637-5.25H45.962l.67-7.75.669-7.75.597-4.75.597-4.75 9.121.006 9.121.006 8.25.642 8.25.642v6.424l.636 4.64.636 4.64h15.992l-.624-4.25-.623-4.25-.663-12.75-.663-12.75h-64.37l-1.16 9.441-1.16 9.442-.02 5.808-.02 5.809-1.47 13-1.47 13-.01.75-.01.75h54.215l-.708 10.25-.708 10.25-.65.585-.65.586-8.121 2.165-8.122 2.164-7.677-1.918-7.677-1.919-1.34-1.111-1.34-1.112-.683-5.47-.683-5.47H28.05l.569 4.75.568 4.75.63 7.619.63 7.619 14.146 4.058 14.144 4.059 3.906.072 3.906.072 11.094-3.062zM40.904 24.399l-.667-.667v-7.685l5.75.26 5.75.259-.274-7.75-.274-7.75h9.048v24H41.571zm24 0l-.667-.667v-5.666h9v-1.834l-.75-.333-.75-.333-4.322-5.226-4.323-5.226.323-2.274.322-2.274 11.25-.283L86.237 0v7.066h-9v1.529l4.5 4.361 4.5 4.361v7.749H65.571z" fill="#131313"/></svg>