<svg xmlns="http://www.w3.org/2000/svg" viewBox="0 0 60 60" width="512" height="512"><g fill="#111"><path d="M32 43h-4a1 1 0 1 0 0 2h4a1 1 0 1 0 0-2z"/><path d="M57 47V12.067A4.07 4.07 0 0 0 52.934 8H7.066A4.07 4.07 0 0 0 3 12.067V47H0v5h60v-5h-3zM5 12.067C5 10.927 5.927 10 7.066 10h45.867c1.14 0 2.067.927 2.067 2.067V47H5V12.067z"/><path d="M6 11v31h48V11H6zm14.293 5.293a.999.999 0 1 1 1.414 1.414l-3 3a.997.997 0 0 1-1.414 0 .999.999 0 0 1 0-1.414l3-3zm-9 4l4-4a.999.999 0 1 1 1.414 1.414l-4 4a.997.997 0 0 1-1.414 0 .999.999 0 0 1 0-1.414zM17 22c0 .26-.11.52-.29.71-.19.18-.45.29-.71.29s-.521-.11-.71-.29c-.181-.19-.29-.44-.29-.71s.109-.52.29-.71c.37-.37 1.05-.37 1.42 0 .18.19.29.45.29.71zm-5.707 3.293l2-2a.999.999 0 1 1 1.414 1.414l-2 2a.997.997 0 0 1-1.414 0 .999.999 0 0 1 0-1.414zm10.414-2.586l-9 9a.997.997 0 0 1-1.414 0 .999.999 0 0 1 0-1.414l9-9a.999.999 0 1 1 1.414 1.414zm2.003-1.997c-.19.18-.45.29-.71.29s-.521-.11-.71-.29c-.181-.19-.29-.45-.29-.71 0-.26.109-.52.29-.71.37-.37 1.05-.37 1.42 0 .18.19.29.45.29.71 0 .26-.11.52-.29.71zm2.997-3.003l-1 1a.997.997 0 0 1-1.414 0 .999.999 0 0 1 0-1.414l1-1a.999.999 0 1 1 1.414 1.414z"/></g></svg>