<svg xmlns="http://www.w3.org/2000/svg" viewBox="0 0 508 508"><circle cx="254" cy="254" r="254" fill="#90dfaa"/><path d="M307.6 130.8c-4.8 0-9.2 1.6-12.4 4.8V92c0-5.6-4.8-10.4-10.4-10.4H242c2.8 3.2 4.8 7.6 4.8 12.4 0 10.4-8.4 19.2-19.2 19.2-10.4 0-19.2-8.4-19.2-19.2 0-4.8 1.6-9.2 4.8-12.4h-42.8c-5.6 0-10.4 4.8-10.4 10.4v43.6c3.2-2.8 7.6-4.8 12.4-4.8 10.4 0 19.2 8.4 19.2 19.2 0 10.4-8.4 19.2-19.2 19.2-4.8 0-9.2-1.6-12.4-4.8V206c0 5.6 4.8 10.4 10.4 10.4h42.8c-2.8 3.2-4.8 7.6-4.8 12.4 0 10.4 8.4 19.2 19.2 19.2 10.4 0 19.2-8.4 19.2-19.2 0-4.8-1.6-9.2-4.8-12.4h42.8c5.6 0 10.4-4.8 10.4-10.4v-41.6c3.2 2.8 7.6 4.8 12.4 4.8 10.4 0 19.2-8.4 19.2-19.2 0-10.4-8.8-19.2-19.2-19.2z" fill="#324a5e"/><path d="M434 298.8c-3.6-3.2-8-5.2-12.4-5.2L452 262c4-4 4-10.8-.4-14.4L420.8 218c-.4 4.4-2 8.8-5.2 12-7.2 7.6-19.2 7.6-26.8.4-7.6-7.2-7.6-19.2-.4-26.8 3.2-3.6 7.6-5.2 12-5.6L370 167.6c-4-4-10.8-4-14.4.4l-30.4 31.6c4.4.4 8.8 2 12.4 5.2 7.6 7.2 7.6 19.2.4 26.8s-19.2 7.6-26.8.4c-3.6-3.2-5.2-7.6-5.6-12l-30 30c-4 4-4 10.8.4 14.4l30.8 29.6c-4.4.4-8.8 2.4-12 5.6-7.2 7.6-7.2 19.6.4 26.8 7.6 7.2 19.6 7.2 26.8-.4 3.2-3.6 5.2-7.6 5.2-12.4l30.8 29.6c4 4 10.8 4 14.4-.4l29.2-30c.4 4.4 2.4 8.8 5.6 12 7.6 7.2 19.6 7.2 26.8-.4 7.6-6.4 7.6-18.4 0-25.6z" fill="#fff"/><path d="M244 364.4c-3.6-3.2-8-5.2-12.4-5.2l30.4-31.6c4-4 4-10.8-.4-14.4l-30.8-29.6c-.4 4.4-2 8.8-5.2 12-7.2 7.6-19.2 7.6-26.8.4s-7.6-19.2-.4-26.8c3.2-3.6 7.6-5.2 12-5.6L179.6 234c-4-4-10.8-4-14.4.4L134.8 266c4.4.4 8.8 2 12.4 5.2 7.6 7.2 7.6 19.2.4 26.8-7.2 7.6-19.2 7.6-26.8.4-3.6-3.2-5.2-7.6-5.6-12l-29.2 30c-4 4-4 10.8.4 14.4l30.8 29.6c-4.4.4-8.8 2.4-12 5.6-7.2 7.6-7.2 19.6.4 26.8 7.6 7.2 19.6 7.2 26.8-.4 3.2-3.6 5.2-7.6 5.2-12.4l30.8 29.6c4 4 10.8 4 14.4-.4l29.2-30c.4 4.4 2.4 8.8 5.6 12 7.6 7.2 19.6 7.2 26.8-.4 7.2-6.8 7.2-19.2-.4-26.4z" fill="#ff7058"/></svg>