<svg xmlns="http://www.w3.org/2000/svg" viewBox="0 0 50 50"><path d="M41.987 7.668A4.024 4.024 0 0 0 38.001 4H11.999C9.936 4 8.185 5.611 8.013 7.661l-2 22.008a4.013 4.013 0 0 0 1.044 3.04A4.014 4.014 0 0 0 10 34h30a4.008 4.008 0 0 0 2.942-1.291 4.014 4.014 0 0 0 1.044-3.049L41.987 7.668zM25.521 26.606c-2.211 0-8.247-.37-8.247-2.867 0-1.585 1.505-1.878 2.411-1.878 1.146 0 2.782 1.173 4.851 1.173 1.469 0 2.985-.737 2.985-1.839 0-2.932-9.198-1.813-9.198-6.398 0-3.758 3.942-4.797 6.586-4.797 1.983 0 5.757.48 5.757 2.239 0 1.093-1.031 1.413-1.839 1.413-1.439 0-2.499-.88-3.894-.88s-2.056.64-2.056 1.511c0 2.247 9.401.941 9.401 6.757 0 4.819-5.435 5.566-6.757 5.566zM40 36H10a6.018 6.018 0 0 1-4-1.532V36c0 2.206 1.794 4 4 4h30c2.206 0 4-1.794 4-4v-1.532A6.01 6.01 0 0 1 40 36z" fill="#111"/><path d="M46.451 12.708a4.047 4.047 0 0 0-2.305-3.297L46 29.046V36c0 3.308-2.692 6-6 6H10c-3.308 0-6-2.692-6-6v-4.954l.021-2L5.853 9.411a4.043 4.043 0 0 0-2.303 3.297L1.019 40.313c-.11 1.199.292 2.397 1.104 3.287S4.09 45 5.294 45h39.412c1.204 0 2.36-.51 3.172-1.399s1.214-2.088 1.104-3.286l-2.531-27.607z" fill="#111"/></svg>