<svg xmlns="http://www.w3.org/2000/svg" viewBox="0 0 54.559612 43.316067" height="43.316" width="54.56"><path d="M.963 42.85C.587 42.474.28 41.792.28 41.333c0-.458 12.187-.833 27.083-.833 21.222 0 26.993.27 26.667 1.25-.315.948-6.694 1.314-26.4 1.516-14.291.147-26.292-.04-26.667-.416zM.575 30.93C1.816 18.903 10.49 8.982 21.53 6.963c2.708-.495 3.75-1.191 3.75-2.505 0-1.06-.852-1.952-2.04-2.138C18.798 1.624 21.625 0 27.28 0c5.792 0 8.846 1.667 4.25 2.32-3.898.553-2.832 3.851 1.5 4.643 11.04 2.02 19.713 11.94 20.955 23.968l.575 5.569H0zm50.705 1.75c0-3.199-3.622-11.82-6.198-14.754-4.82-5.49-10.179-7.853-17.802-7.853-7.624 0-12.982 2.364-17.802 7.853C6.901 20.862 3.28 29.482 3.28 32.682c0 .45 10.8.818 24 .818s24-.368 24-.818z" fill="#080808"/></svg>