<svg xmlns="http://www.w3.org/2000/svg" viewBox="0 0 47.913826 43.970631" height="43.971" width="47.914"><path d="M.015 42.72c.316-.95 5.772-1.25 22.75-1.25s22.433.3 22.75 1.25c.325.977-4.661 1.25-22.75 1.25-18.09 0-23.076-.273-22.75-1.25zm12.17-7.635c-4.634-2.826-6.42-7.56-6.42-17.015v-8.1h10.279l-.593-5c-.608-5.134.426-6.526 2.279-3.065 1.552 2.9 1.263 5.698-1.06 10.25-1.691 3.317-1.884 4.568-1 6.508 1.401 3.074 1.38 3.308-.298 3.308-1.684 0-2.607-2.155-2.607-6.082 0-2.252-.457-2.918-2-2.918-1.817 0-2 .666-2 7.277 0 10.746 3.78 14.723 14 14.723 10.2 0 14-3.981 14-14.668V13.08l-4.672-.305c-2.611-.17-4.853-.856-5.083-1.554-.302-.915 1.352-1.25 6.171-1.25 5.186 0 6.584.318 6.584 1.5 0 .825.614 1.5 1.365 1.5.75 0 2.55.932 4 2.072 5.118 4.026 2.723 12.928-3.478 12.928-1.67 0-3.025.962-4.231 3.005-2.628 4.448-6.465 5.995-14.857 5.99-5.377-.002-8.11-.498-10.38-1.881zm31.399-9.981c.827-.525 1.2-2.293 1-4.735-.26-3.163-.744-3.959-2.57-4.218-2.079-.295-2.25.065-2.25 4.75 0 5.1.88 6.067 3.82 4.203zm-22.62-3.333c-1.66-1.662-1.447-8.888.333-11.241 1.718-2.272 1.947-7.145.38-8.113-.776-.48-.765-.994.042-1.8.839-.84 1.378-.746 2.096.362 2.107 3.25 2.123 6.047.056 10.013-2.39 4.584-2.643 7.041-.906 8.779.8.8.866 1.533.2 2.2-.667.666-1.4.6-2.2-.2z" fill="#1e1e1e"/></svg>