<svg xmlns="http://www.w3.org/2000/svg" viewBox="0 0 42.963982 43.470196" height="43.47" width="42.964"><path d="M17.482 41.56C12.326 38.82 4.968 31.137 2.329 25.737.622 22.243.014 19.25 0 14.277-.018 7.819 1.41 6.25 3.741 3.784c2.33-2.468 3.974-2.672 8.5-3.588 4.526-.916 5.545 3.998 18.481 0 2.938-.908 4.38 1.517 8.5 3.588 3.607 3.61 3.759 4.035 3.74 10.493-.022 8.326-2.668 14.24-9.31 20.808-3.76 3.719-10.965 8.594-12.38 8.378-.16-.024-1.865-.88-3.79-1.903zm9.1-4.15c8.64-6.081 13.873-14.842 13.89-23.253.008-4.188-.454-5.313-3.39-8.25-6.211-6.21-15.185-3.855-17.735 4.654-1.51 5.04-3.29 5.183-2.462.196 1.338-8.055 1.47-7.723-3.194-8.059-3.762-.271-4.717.117-7.75 3.15-3 3-3.458 4.104-3.45 8.31.01 5.257 3.165 12.976 7.153 17.502 2.404 2.729 10.59 8.847 11.838 8.847.384 0 2.68-1.393 5.1-3.097zm8.223-25.857c-.705-1.868-2.074-3.196-3.72-3.609-3.316-.832-3.385-2.437-.103-2.437 3.209 0 6.5 3.291 6.5 6.5 0 3.38-1.315 3.156-2.677-.454z" fill="#141414"/></svg>