<svg xmlns="http://www.w3.org/2000/svg" viewBox="0 0 43.920727 44.087967" height="44.088" width="43.921"><path d="M1.148 42.822C-3.165 38.51 5.643 27.156 11.544 29.42c2.02.775.825 2.602-1.7 2.602-2.592 0-6.896 4.341-6.896 6.954 0 1.98.54 2.046 17 2.046 15.624 0 17-.144 17-1.778 0-2.903-2.872-6.132-6.227-7.001-3.67-.95-4.943-3.221-1.807-3.221 6.984 0 13.911 9.722 9.834 13.8-1.688 1.688-35.912 1.688-37.6 0zm39.8-8.8c0-3.417-2.762-6.651-6.475-7.583-2.457-.617-3.626-3.417-1.426-3.417 2.664 0 8.114 3.51 9.445 6.085 1.924 3.721 1.9 7.915-.044 7.915-1 0-1.5-1-1.5-3zm-27.384-6.657c-3.249-3.248-4.022-6.055-3.338-12.12 1.19-10.559 12.321-13.688 17.777-4.998 1.603 2.553 1.967 4.47 1.654 8.693-.338 4.56-.903 5.866-3.571 8.25-4.195 3.747-8.884 3.813-12.522.175zm11.311-2.978c3.025-3.845 2.837-10.692-.382-13.91-4.295-4.295-8.963-2.748-11.45 3.796-3.364 8.845 6.32 17.122 11.832 10.114zm6.968-7.615c-.057-.138-.21-1.96-.34-4.048-.13-2.09-1.156-5.014-2.279-6.5-1.666-2.204-2.801-2.686-6.16-2.616-4.176.088-5.74-1.75-2.535-2.98C24.123-.75 27.246.122 30.548 3.423c2.977 2.978 3.4 4.033 3.4 8.5 0 2.805-.45 5.1-1 5.1s-1.047-.113-1.105-.25z" fill="#171717"/></svg>