<svg xmlns="http://www.w3.org/2000/svg" viewBox="0 0 260.77948 260.20001" height="260.2" width="260.779"><path d="M117.688 260.2s-30.342-6.2-34.438-8c-2.612-1.1-6.586-2.5-8.829-3.1-2.244-.6-9.477-4.6-16.075-9-14.68-9.7-30.12-25.4-36.029-36.6-2.023-3.8-4.898-8.7-6.388-10.7-1.49-2.1-3.709-7.5-4.931-12C7.32 167.1.557 144.1.468 147.4L0 165v-31.5l1.818-24.2-.803 15.1c-.145 2.7 4.77-22.8 7.95-33.1C10.882 85 13.86 78 16.072 74.5c2.095-3.3 4.692-8.1 5.772-10.6s3.92-6.9 6.31-9.7c2.39-2.7 6.507-7.5 9.147-10.6 2.641-3.1 6.916-7 9.5-8.8 2.585-1.7 6.57-4.8 8.859-6.9 2.288-2.1 6.432-4.9 9.21-6.3 2.776-1.4 7.14-3.9 9.697-5.5 2.557-1.7 6.063-3.3 7.79-3.6 1.729-.4 7.756-2 13.393-3.7 9.871-3 10.25-3.2 10.25-6l10.906-1L130 0h24l-15.753.4c-2.552.1 16.293 5.4 21.503 7 3.163 1 9.27 2.7 13.573 3.7 4.653 1.1 9.607 3.1 12.224 4.9 2.42 1.7 7.225 4.3 10.677 5.9 10.774 4.9 35.311 28.2 41.179 39.2 1.596 3 4.368 7.4 6.16 9.9 1.79 2.5 4.234 7.7 5.429 11.5 4.168 13.4 4.472 21.8 7.89 22.2l.089 12.4 3.029 17V171l.778-20.6c.102-2.7-6.689 21.1-9.692 29.4-6.367 17.4-15.343 30.4-31.705 46.1-13.734 13.1-24.42 20.4-35.764 24.2-8.906 3-55.082 8.9-51.423 9L174 260h-43l-9.676-1.2zM142 190.9c3.771-.6 8.33-2.1 10.859-3.7 2.397-1.5 6.71-4.1 9.583-5.9 7.916-4.8 16.071-14.7 21.94-26.5l5.092-10.3-.044-11.5c-.048-12.5.475-10.7-8.931-30.3-2.569-5.4-8.919-11.7-21.595-21.5-2.518-1.9-23.89-7.2-29.264-7.2-2.773 0-9.694 1.5-16.112 3.5-10.264 3.2-11.9 4.1-18.64 9.8-9.854 8.5-13.293 12.5-15.422 18.3-.979 2.7-3.284 8.9-5.123 13.8-3.981 10.5-4.118 14-.932 23.7 6.116 18.7 7.308 21 14.879 28.7 3.965 4.1 9.01 8.3 11.21 9.4 2.2 1.1 5.884 3.4 8.186 4.9 7.82 5.4 20.16 7.1 34.314 4.8z" fill="#23bf9e"/></svg>