<svg version="1" xmlns="http://www.w3.org/2000/svg" width="696" height="696" viewBox="0 0 522.000000 522.000000"><path d="M255.9 1.4c-.2.2-2.9.7-5.9 1.1-3 .4-6.8.9-8.5 1.2-1.6.2-4.6.6-6.5.8-8.6.8-19.6 1.8-20.9 1.8-.7 0-1.7 1.2-2.3 2.7-.5 1.5-1.9 3.2-3.1 3.8-3.5 1.8-33 10.8-38.3 11.8-4.8.9-14.8 4.5-16.5 6-.8.8-1.8 1.4-2.1 1.4-.4 0-5.1 2.6-10.5 5.8-5.4 3.1-11.5 6.6-13.6 7.7-3.9 2-7 4.3-27.9 20.5C87.6 75.3 77.7 84.6 69 94.8c-2.5 2.9-5.4 6.3-6.5 7.6-5.7 6.6-7.3 8.5-10.7 13.2-2.1 2.8-6.5 10.4-9.9 17-3.4 6.5-7 13-7.9 14.4-5.2 7.5-16.6 35.6-18.5 45.4-.2 1.2-.4 2.1-.5 2.1-.1 0-.3.8-.5 1.7-.2.9-1 4.5-1.9 8-.8 3.5-1.7 7.4-2 8.8-.2 1.4-1.2 5.6-2.1 9.5-.9 3.8-1.8 7.8-2 8.8-.2 1-.6 2.6-.9 3.5-.3.9-.7 3.5-1.1 5.6-.3 2.2-1.3 4.5-2.3 5.3-.9.8-1.1 1.2-.4.8 1.4-.7 1.7 1.1.3 2-.6.3-1 1.3-1 2.3C.5 265.5.3 301.6.8 299l.7-3.5 1.3 3.5c2.7 7.2 8.5 26.1 13.8 45 3 10.7 6.4 22.2 7.6 25.5 2.2 6.5 7.7 18.7 8.8 19.5.9.7 11.9 19.2 14.8 25.1 2.5 4.8 17.8 23.3 27 32.5 12 12.2 29.3 26.6 42.2 35.1 10.9 7.2 18.8 11.9 20.5 12.3.6.1 2.2 1.1 3.7 2.1 1.4 1 2.9 1.9 3.3 1.9.4 0 2.1.6 3.8 1.4 10.7 4.6 30.2 10.3 50.2 14.6 5 1.1 12 2.7 15.6 3.5 3.6.8 7.7 1.6 9 1.9 1.3.2 4.7.9 7.4 1.6 4.1.9 5.7.8 8.7-.4 3.4-1.4 5.6-1.4 14.3 0 5.6.9 28.5 1.3 28.5.5 0-.5-1.5-.9-3.2-.9-14.1-.1-14.3-1-.8-2.8 2.5-.3 5.2-.7 6-.9 1.3-.2 5.6-.9 13-2 9.6-1.5 22.9-3.7 25-4.1 1.4-.3 4.2-.7 6.2-.9 2-.2 4.5-.6 5.5-.9 1-.3 3.6-.8 5.8-1.1 2.3-.3 5.2-.7 6.5-1 1.4-.3 3.9-.7 5.5-1 7.9-1.5 17.1-3.9 19.4-5.1 1.4-.8 3.2-1.4 3.9-1.4 1.6 0 17.3-8.3 24.2-12.8 7.1-4.7 17.1-12.3 25.1-19.2 11-9.4 42.9-41.9 42.9-43.7 0-.3.8-1.3 1.8-2.2 4.7-4.4 17.8-24.9 23.8-37.1 1.9-4 3.2-6.8 7.9-17.5 1.1-2.7 2.7-7.2 3-8.5.1-.3 2.2-6.8 4.7-14.5s6.1-18.8 7.9-24.8c1.9-5.9 3.8-10.7 4.2-10.7.5 0 .5.4.2 1-.3.5-.1 1 .4 1 .6 0 1.1-1.6 1.1-3.5s-.3-3.5-.8-3.5c-.4 0-.8-7.8-.8-17.3-.1-15.9-.5-20.2-4.1-39.2-.3-1.7-.7-4.1-1-5.5-.2-1.4-.6-8.8-.8-16.4-.3-11.7-.6-14.1-2-14.9-1.8-1-5.2-8.2-6-13-.3-1.6-.8-3.4-1.1-3.9-.3-.5-.7-1.9-.9-3.1-1.5-12-13.3-44.1-16.7-45.5-.4-.2-.8-.8-.8-1.4 0-.6-1.1-2.6-2.5-4.4-1.4-1.8-2.5-3.7-2.5-4.3 0-.6-.4-1.1-.8-1.1s-1.9-2.2-3.3-5c-1.3-2.7-2.7-5-3.1-5-.5 0-.8-.6-.8-1.4 0-.8-.6-2.1-1.3-2.8-.7-.7-2.3-2.9-3.7-4.8-5.5-8.1-24.6-28.3-39.2-41.7-8.6-7.8-24.4-20.3-25.7-20.3-.6 0-1.1-.4-1.1-.8 0-.5-4.6-3.3-10.2-6.2-5.7-3-13.6-7.3-17.6-9.7-4.1-2.4-7.8-4.3-8.3-4.3-.5 0-.9-.5-.9-1 0-.6-.7-1-1.5-1s-2.3-.4-3.3-1c-3-1.6-23.7-7.7-32-9.4-1-.2-2.4-.6-3.2-.9-4.6-1.7-15.2-4.7-16.8-4.7-1 0-2.2-.4-2.8-.8-.5-.5-2.9-1.4-5.4-2.1-2.5-.7-9-2.7-14.5-4.4-8.3-2.5-9.6-3.2-7.5-3.8 1.4-.4-3.1-.7-10.1-.8-6.9-.1-12.8.1-13 .3zm14.1 149c1.9.3 4.6.8 6 1.1 1.4.3 3.6.8 5 1.1 6.1 1.2 25.8 6.6 31.1 8.5 3.2 1.2 6.6 2.9 7.6 3.8 1 .9 5 4.1 8.8 7.2 12.9 10.4 20.9 18 26.4 24.9 4.1 5.2 14.9 26.3 20.1 39.5 3.6 8.9 3.9 11.9 4.1 35l.2 19-3.7 7.2c-2 4-3.6 7.5-3.7 7.8 0 .2-1.5 3.2-3.4 6.6-1.9 3.3-3.5 6.3-3.5 6.5 0 .4-6 10.4-7.2 11.9-.4.5-3.4 4.4-6.5 8.5-10 13.2-18.6 20.7-35.8 31.1-14.7 8.8-20.8 11.3-33.2 13.6-5 .9-35.1 1.2-38.5.4-1.8-.5-5.8-1.4-8.8-2.1-5.8-1.4-13.3-4.6-19.1-8.2-2-1.3-7.7-4.7-12.5-7.5-4.9-2.9-10.7-6.7-12.9-8.5-4.9-4.1-20.1-19.3-23.7-23.8-5.9-7.2-13.7-26.1-21-50.5-2.9-10.1-3.7-17.7-2.6-25 .7-4 4.5-16.2 6.9-22 .7-1.7 1.3-3.5 1.5-4 1.4-5.1 9.7-25.3 11.9-29.1 5.5-9.6 38.1-39.2 43.3-39.4.6 0 1.2-.5 1.2-1 0-.6.3-.9.8-.8.4.1 3.3-.8 6.4-2 7.3-2.7 22.2-7.1 31.8-9.2 7.2-1.5 15.7-1.8 23-.6zM520.4 315c0 2.2.2 4 .6 4 .3 0 .6-1.8.7-4 .1-2.2-.1-4-.5-4s-.8 1.8-.8 4z"/><path d="M283 520.9c0 .9 25.9 1.1 26.4.3.2-.4-5.6-.8-13-.8-7.4-.1-13.4.1-13.4.5zm28 .1c0 .5.5 1 1.1 1 .5 0 .7-.5.4-1-.3-.6-.8-1-1.1-1-.2 0-.4.4-.4 1zm3.8.7c.7.3 1.6.2 1.9-.1.4-.3-.2-.6-1.3-.5-1.1 0-1.4.3-.6.6zm4.5 0c.9.2 2.3.2 3 0 .6-.3-.1-.5-1.8-.5-1.6 0-2.2.2-1.2.5z"/></svg>