<svg xmlns="http://www.w3.org/2000/svg" width="1000" height="1000" viewBox="0 0 1000 999.99996"><path d="M-1877.664 612.199c-98.155-97.8 102.322-355.285 236.637-303.93 45.962 17.573 18.78 58.997-38.714 58.997-58.98 0-156.952 98.453-156.952 157.722 0 44.913 12.308 46.389 386.946 46.389 355.625 0 386.945-3.263 386.945-40.312 0-65.848-65.354-139.067-141.73-158.786-83.522-21.564-112.51-73.05-41.128-73.05 158.956 0 316.645 220.49 223.83 312.97-38.425 38.285-817.41 38.285-855.834 0zm905.908-199.575c0-77.486-62.86-150.84-147.37-171.974-55.918-13.984-82.53-77.495-32.471-77.495 60.65 0 184.685 79.622 214.986 138.006 43.797 84.386 43.266 179.5-1.001 179.5-22.761 0-34.142-22.68-34.142-68.037zm-623.299-150.966c-73.945-73.677-91.534-137.317-75.972-274.88 27.088-239.453 280.444-310.424 404.628-113.345 36.483 57.898 44.784 101.36 37.654 197.146-7.7 103.44-20.558 133.033-81.292 187.102-95.47 84.992-202.213 86.482-285.018 3.977zm257.463-67.543c68.85-87.212 64.571-242.478-8.694-315.478-97.756-97.402-204.011-62.298-260.641 86.109-76.545 200.598 143.864 388.301 269.335 229.369zm158.608-172.704c-1.306-3.118-4.796-44.432-7.755-91.808-2.959-47.376-26.297-113.712-51.862-147.413-37.914-49.98-63.759-60.914-140.196-59.318-95.07 1.987-130.653-39.677-57.708-67.568 81.797-31.274 152.887-11.527 228.03 63.343 67.778 67.533 77.389 91.472 77.389 192.771 0 63.615-10.243 115.663-22.762 115.663-12.518 0-23.83-2.551-25.136-5.67z" fill="#171717"/><path d="M-986.105 160.844c5.938-21.454 108.217-28.221 426.512-28.221 318.296 0 420.574 6.767 426.513 28.221 6.1 22.036-87.386 28.221-426.513 28.221-339.127 0-432.611-6.185-426.512-28.22zm228.16-172.39c-86.87-63.793-120.36-170.687-120.36-384.158v-182.849h192.7l-11.101-112.885c-11.402-115.93 7.99-147.351 42.715-69.215 29.104 65.489 23.685 128.649-19.858 231.431-31.718 74.871-35.321 103.109-18.748 146.913 26.261 69.409 25.866 74.68-5.598 74.68-31.56 0-48.875-48.643-48.875-137.308 0-50.833 32.607-89.023 3.678-89.023-34.061 0-78.67 38.19-78.67 187.442 0 242.62 70.887 332.39 262.47 332.39 191.237 0 262.469-89.87 262.469-331.152v-163.068l-87.587-6.88c-48.952-3.847-90.99-19.33-95.301-35.103-5.648-20.66 25.354-28.222 115.708-28.222 97.21 0 123.423 7.193 123.423 33.866 0 18.626 11.517 33.865 25.593 33.865 14.077 0 47.823 21.057 74.992 46.793 95.958 90.898 51.057 291.862-65.21 291.862-31.29 0-56.7 21.736-79.32 67.847C-334.08-3.902-406.03 31.04-563.347 30.942c-100.807-.068-152.062-11.254-194.597-42.489zm588.667-225.351c15.496-11.833 22.497-51.748 18.747-106.895-4.855-71.411-13.94-89.37-48.166-95.225-38.986-6.667-42.183 1.461-42.183 107.241 0 115.153 16.47 136.977 71.602 94.879zm-424.06-75.247c-31.147-37.508-27.148-200.664 6.22-253.79 32.216-51.294 36.507-161.308 7.144-183.162-14.568-10.842-14.345-22.438.78-40.653 15.717-18.928 25.827-16.82 39.295 8.192 39.5 73.36 39.79 136.532 1.04 226.06-44.798 103.501-49.552 158.98-16.985 198.2 14.998 18.06 16.248 34.617 3.75 49.668-12.499 15.052-26.247 13.547-41.245-4.515z" fill="#1e1e1e"/><path d="M-1080.713 874c-119.008-60.38-288.848-229.762-349.746-348.802-39.401-77.021-53.442-142.997-53.76-252.619-.413-142.343 3.096-151.74 86.346-231.3 77.882-74.43 159.348-140.447 240.131-108.135 155.989 62.394 233.148 53.491 382.647 29.047 96.862-15.837 118.316 4.659 196.198 79.087 83.25 79.56 86.759 88.958 86.346 231.301-.534 183.55-61.612 313.915-214.905 458.688-86.81 81.986-253.097 189.453-285.78 184.694-3.68-.536-43.044-19.419-87.477-41.962zm210.045-91.467c199.43-134.058 320.225-327.178 320.616-512.582.185-92.338-10.472-117.13-78.253-181.861-143.356-136.908-350.494-84.997-409.342 102.584-34.858 111.111-75.935 114.24-56.83 4.328 30.868-177.58 33.911-170.246-73.73-177.661-86.823-5.98-108.88 2.58-178.885 69.438-69.235 66.12-79.822 90.475-79.627 183.172.245 115.902 73.054 286.048 165.105 385.83 55.488 60.15 244.447 195.023 273.229 195.023 8.886 0 61.858-30.722 117.717-68.27zM-680.86 212.53c-16.27-41.165-47.863-70.439-85.847-79.543-76.555-18.35-78.134-53.715-2.399-53.715 74.077 0 150.034 72.54 150.034 143.285 0 74.477-30.334 69.555-61.788-10.027z" fill="#141414"/><path d="M-1467.9 1784.24c0-86.289-11.434-123.073-48.672-156.592-26.77-24.095-67.46-85.206-90.423-135.8-80.461-177.278-43.769-334.12 111.28-475.671 196.72-179.595 495.364-179.595 692.084 0 155.653 142.103 191.615 297.718 110.544 478.34-72.79 162.173-240.417 262.807-444.717 266.983-73.905 1.51-142.208 19.825-193.713 51.94-43.757 27.284-92.343 57.251-107.97 66.594-21.151 12.646-28.414-11.842-28.414-95.795zm268.33-81.752c73.533 19.455 254.857-33.154 339.736-98.57 294.81-227.211 105.895-652.515-289.839-652.515-179.816 0-358.856 108.132-411.822 248.722-50.966 135.28-6.207 302.632 104.505 390.742 39.818 31.688 57.28 67.936 57.28 118.894v73.308l75.03-46.915c45.551-28.483 94.707-41.71 125.11-33.666zm-126.265-250.886c6.429-19.513 63.014-28.747 176.162-28.747s169.733 9.234 176.162 28.747c7.061 21.433-37.758 28.747-176.162 28.747s-183.223-7.314-176.162-28.747zm-73.874-189.73c0-28.574 42.936-34.497 250.036-34.497s250.036 5.923 250.036 34.496-42.935 34.497-250.036 34.497c-207.1 0-250.036-5.924-250.036-34.497z" fill="#171717"/><path d="M22.265 14.33c-6.859 8.582-12.47 24.173-12.47 34.645 0 10.473 222.55 19.042 494.555 19.042 387.524 0 492.91-6.179 486.955-28.563C985.542 17.794 869.058 9.422 509.22 4.81c-260.967-3.35-480.096.94-486.955 9.52zM15.18 286.661c22.67 274.85 181.054 501.538 382.65 547.67 49.445 11.315 68.477 27.223 68.477 57.238 0 24.217-15.546 44.615-37.244 48.87-81.126 15.904-29.496 53.001 73.765 53.001 105.775 0 161.541-38.085 77.607-53.002-71.168-12.647-51.715-88.004 27.391-106.107 201.597-46.132 359.98-272.82 382.65-547.67l10.495-127.245H4.685zm925.9-39.992c0 73.102-66.127 270.076-113.183 337.14-88.005 125.425-185.86 179.441-325.069 179.441s-237.063-54.016-325.069-179.44C130.703 516.745 64.576 319.771 64.576 246.67c0-10.287 197.214-18.703 438.252-18.703 241.039 0 438.252 8.416 438.252 18.703z" fill="#080808"/></svg>