<svg xmlns="http://www.w3.org/2000/svg" viewBox="0 0 143.93259 83.822166" height="83.822" width="143.933"><path d="M66.994 82.921C63.11 80.465.81 17.09.304 15.078c-.963-3.814.45-9.437 3.014-12.001C6.299.095 13.532-.983 17.062 1.027c1.322.752 12.754 11.936 25.404 24.852 12.65 12.917 23.9 24.036 25 24.709 2.557 1.565 6.443 1.565 9 0 1.1-.673 12.35-11.792 25-24.709 12.65-12.916 24.082-24.1 25.404-24.853 3.53-2.01 10.763-.93 13.745 2.05 2.564 2.565 3.976 8.188 3.014 12.002-.507 2.011-62.806 65.387-66.69 67.843-1.9 1.202-8.045 1.202-9.945 0z" fill="#212121"/></svg>