<svg xmlns="http://www.w3.org/2000/svg" viewBox="0 0 122.04423 217.84021" height="217.84" width="122.044"><path d="M117.451 216.785c1.006-.59 2.457-2.587 3.224-4.438 2.576-6.216 1.96-7.795-5.707-14.613-7.316-6.506-33.453-31.481-64.17-61.317-9.627-9.35-18.925-17.75-20.662-18.666-6.834-3.604-6.322-14.701.849-18.408 1.816-.938 12.158-10.306 22.982-20.816 40.846-39.662 54.03-52.297 61.07-58.525 7.058-6.246 7.236-6.519 6.735-10.289-.976-7.332-5.202-10.88-11.165-9.371-1.453.368-10.393 8.52-20.953 19.108-10.13 10.157-18.889 18.467-19.464 18.467-.576 0-7.997 6.895-16.491 15.321-8.495 8.427-17.007 16.57-18.916 18.094-1.91 1.526-10.273 9.557-18.585 17.848C.814 104.525-1.242 107.595.531 112.58c.359 1.01 8.705 9.487 18.548 18.837 9.842 9.35 25.144 24.088 34.004 32.75 8.86 8.663 16.577 15.75 17.147 15.75.57 0 9.032 8.037 18.804 17.86 9.773 9.823 18.72 18.373 19.881 19 2.622 1.415 6.13 1.418 8.536.008z" fill="#787878"/></svg>