<svg xmlns="http://www.w3.org/2000/svg" viewBox="0 0 123.04052 217.84021" height="217.84" width="123.041"><path d="M4.63 216.785c-1.014-.59-2.476-2.587-3.25-4.438-2.597-6.216-1.975-7.795 5.754-14.613 7.375-6.506 33.726-31.481 64.695-61.317 9.705-9.35 19.078-17.75 20.83-18.666 6.89-3.604 6.373-14.701-.856-18.408-1.831-.938-12.257-10.306-23.17-20.816C27.453 38.865 14.161 26.23 7.065 20.002-.05 13.756-.23 13.483.275 9.713 1.258 2.381 5.519-1.167 11.53.342c1.466.368 10.48 8.52 21.124 19.108 10.213 10.157 19.043 18.467 19.624 18.467.58 0 8.062 6.895 16.625 15.321 8.564 8.427 17.146 16.57 19.071 18.094 1.925 1.526 10.356 9.557 18.736 17.848 15.51 15.345 17.582 18.415 15.796 23.4-.363 1.01-8.777 9.487-18.7 18.837-9.922 9.35-25.35 24.088-34.282 32.75-8.933 8.663-16.712 15.75-17.287 15.75-.575 0-9.106 8.037-18.958 17.86-9.852 9.823-18.871 18.373-20.043 19-2.643 1.415-6.18 1.418-8.606.008z" fill="#787878"/></svg>