<svg xmlns="http://www.w3.org/2000/svg" viewBox="0 0 320 154.29419" height="154.294" width="320"><path d="M23.795 135.162C9.449 120.622 4.329 116.03 2.459 116.03c-2.43 0-2.459-.106-2.459-9 0-8.912.024-9 2.478-9 1.898 0 7-4.597 21.782-19.626l19.303-19.626 5.073-.487c6.097-.586 9.056.777 10.827 4.988 2.126 5.056.416 8.46-8.443 16.81-6.642 6.26-8.02 8.086-8.02 10.628 0 1.687.621 3.584 1.38 4.214 1.009.837 23.61 1.207 83.75 1.373 75.352.207 82.693.372 86.156 1.94 8.111 3.672 8.111 13.9 0 17.572-3.463 1.568-10.804 1.733-86.155 1.94-60.14.166-82.742.536-83.75 1.373-.76.63-1.381 2.53-1.381 4.222 0 2.408 1.109 4.118 5.096 7.862C55.93 138.567 59 142.875 59 146.513c0 4.73-2.89 6.81-10.202 7.338l-6.127.443zM263.66 94.958c-1.013-.621-2.422-2.51-3.132-4.199-2.116-5.032-.396-8.448 8.452-16.788 6.642-6.26 8.02-8.086 8.02-10.628 0-1.687-.621-3.584-1.38-4.214-1.009-.837-23.61-1.207-83.75-1.373-75.352-.207-82.693-.372-86.156-1.94-8.111-3.672-8.111-13.9 0-17.572 3.463-1.568 10.804-1.733 86.155-1.94 60.14-.166 82.742-.536 83.75-1.373.76-.63 1.381-2.465 1.381-4.077 0-2.323-1.652-4.598-7.961-10.967-8.777-8.86-9.769-10.68-8.062-14.801 1.48-3.572 4.783-5.052 11.32-5.071L277.5 0l18.779 19.003c10.547 10.673 19.862 19.275 21.25 19.624 2.363.593 2.471.96 2.471 8.403 0 7.465-.102 7.809-2.496 8.41-1.431.359-10.733 9.001-21.807 20.26l-19.311 19.633-5.443.377c-2.994.206-6.271-.132-7.283-.752z" fill="#2b2b2b"/></svg>