<svg xmlns="http://www.w3.org/2000/svg" viewBox="0 0 244.10683 208.64519" height="208.645" width="244.107"><path d="M121.107 208.274l-34.5.371-5-1.556-5-1.556-11.579-.918-11.578-.918-4.422-2.006-4.421-2.006-3.628-.022-3.627-.022-1.313-1.581-1.312-1.581 1.19-1.906 1.19-1.905V167.57l1.439-2.214 1.439-2.215.708-11.323.708-11.323 2.404-1.576 2.404-1.575 1.449-2.802 1.449-2.802v-7.074l4-2.525 4-2.525.015-2.237.015-2.238.735-1.11.735-1.11 3.25-1.666 3.25-1.665v-1.847l3.446-2.629L72 102.486l5.804-1.387 5.804-1.387L86 99.677l2.392-.036 6.858 2.043 6.858 2.042v1.618l-6 6.056-6 6.056v2.18l-3.478 3.849-3.477 3.849-1.057 5.404-1.056 5.403-1.592 3.5-1.592 3.5-1.804 3.512-1.804 3.512-.23 18.245-.23 18.245.653.653.652.652 8.257 1.817 8.258 1.817 26.382.023 26.382.024 3.365-2.08 3.366-2.08 3.118.685 3.119.685 5.634-2.693 5.634-2.693 1.1-.662 1.1-.662 4.186-2.785 4.185-2.785-.285-9.616-.286-9.617-6-3.301-6-3.301-3.5-.063-3.5-.062-4-1.44-4-1.442-8.275-.044-8.275-.044-5.69-2-5.69-2h-6.674l-3.444-3.75-3.445-3.75-.005-1.8-.005-1.802 3.468-1.449 3.468-1.449 17.282-.09 17.282-.089 11.5-.793 11.5-.793 6.66-1.966 6.658-1.965 7.841-4.425 7.841-4.425.103-4.977.103-4.977-.845-1.67-.845-1.67-3.428-1.13-3.428-1.132-1.202-1.449-1.203-1.449h-11.31l-2.288-1.603-2.29-1.603-9.683-.405-9.684-.405-5-.941-5-.942-16.5-.603-16.5-.603-25.683 1.482L63.239 94.5l-1.95 1.043-1.95 1.044-7.193 1.116-7.193 1.116-5.224 2.31-5.223 2.31-4.704 3.175-4.704 3.175-.958 1.789-.957 1.789-3.038 1.258-3.038 1.259v1.613l-5.671 2.122-5.671 2.122-2.58-.3-2.578-.3-.304-6.469-.303-6.47.58-2.309.58-2.31 3.425-1.633 3.425-1.633.299-2.026.298-2.026 4-2.277 4-2.276 3.483-1.646 3.483-1.647 2.402-1.889 2.402-1.889 3.115-.006 3.115-.006 3-1.675 3-1.674 7-.738 7-.737 7-1.576 7-1.576 20.748-.663 20.749-.662 21.251 1.26 21.252 1.26 9.657 1.896 9.657 1.897h8.873l5.813 2 5.813 2h6.766l3.71 1.858 3.71 1.858 3 .7 3 .7 6.438 2.548 6.437 2.55 5.19 3.834 5.191 3.834.577 3.31.578 3.308-.865 4.492-.865 4.492-1.781 1.008-1.782 1.008-2.466 2.362-2.465 2.361-4.593 2.445-4.593 2.444-7 2.37-7 2.37-6.5 1.04-6.5 1.04-8.5 1.54-8.5 1.54-1.5.565-1.5.566 1.94 1.428 1.942 1.43h9.295l10.161 4.968 10.162 4.97v3.898l3.5 2.163 3.5 2.163v13.692l-2.885 2.323-2.885 2.322-1.61 3.19-1.61 3.19-3.005 1.776-3.005 1.775v1.708l-10.25 4.816-10.25 4.816-4.317.714-4.317.713-5.683 2.032-5.683 2.031-34.5.372zM54.273 77.64H51.44l-.667-.667-.666-.666v-2.434l2.096-.548 4.904-6.37 8.215 1.844-4.55 2.841-3.665 4.107v1.893zm6.499-6h-1.265l-1.2-1.2-1.2-1.2v-4.57l4.017-2.659 4.017-2.658.6-2.391.6-2.39 3.133-1.596 3.133-1.595 1.5-1.441 1.5-1.442 3.407-2.178 3.407-2.179 4.093-2.75 4.093-2.752 5.5-2.615 5.5-2.616 5-1.804 5-1.804 8.5-3.063 8.5-3.063 7.766-.907 7.766-.907 1.55-1.287 1.55-1.287 13.684-.721 13.684-.721 4-1.45 4-1.451 12.76-.63 12.76-.631 3.179-1.644 3.177-1.643 4.475.09 4.474.09 6.087-2.383 6.088-2.383 4.25-.672 4.25-.672v6.176h-5.73l-2.385 1.841-2.385 1.841-8.789 4.131-8.788 4.13-3.831 1.032-3.831 1.032-2.63 2.07-2.631 2.068v4.84l-3.415 1.757-3.416 1.758-6.334 3.141-6.335 3.141-6.5 2.014-6.5 2.013-8 .65-8 .651-5 1.379-5 1.38-12.5.637-12.5.639-6 1.427-6 1.427-7.5.902-7.5.902-5 1.737-5 1.736-7 2.52-7 2.521-3.285 2.842-3.285 2.841zM45.226 60.562l-1.62-.079-1.25-.504-1.25-.505v-3.588l1.489-1.235 1.488-1.235 2.253-3.637 2.254-3.638.509-4.984.508-4.984 3.193-2.016 3.194-2.016 1.197-2.797 1.198-2.797 2.809-1.453 2.81-1.453.922-1.649.923-1.65 4.101-2.1 4.1-2.1 9.223-4.75 9.222-4.75h3.54l5.429-1.652 7.264-1.957 4.996-.092 4.079-1.315L121.224 0l4.383 1.649 5.104-.004-5.104.004 5.104-.004 5.104-.004 2.697 2.5 2.698 2.5 15.198.07 15.199.07 2 .816 2 .815-2.5.614-2.5.614-6.5 1.576-6.5 1.577-4 .88-4 .881-6.8.044-6.8.043-3.112 1.61-3.112 1.61-6.088.505-6.088.505-2.224 1.391-2.224 1.391-5.276 1.42-5.276 1.422-4.945 1.733-4.945 1.734-8.141 4.223-8.14 4.223-5.165 3.71-5.164 3.71v1.729l-4.5 2.637-4.5 2.637v1.64l-5.13 4.085-5.131 4.085z" fill="#8bc7af"/></svg>