<?xml version="1.0" standalone="no"?>
<!DOCTYPE svg PUBLIC "-//W3C//DTD SVG 20010904//EN"
 "http://www.w3.org/TR/2001/REC-SVG-20010904/DTD/svg10.dtd">
<svg version="1.0" xmlns="http://www.w3.org/2000/svg"
 width="976.000000pt" height="976.000000pt" viewBox="0 0 976.000000 976.000000"
 preserveAspectRatio="xMidYMid meet">
<metadata>
Created by potrace 1.11, written by Peter Selinger 2001-2013
</metadata>
<g transform="translate(0.000000,976.000000) scale(0.100000,-0.100000)"
fill="#000000" stroke="none">
<path d="M4816 9035 c-11 -8 -28 -15 -37 -15 -10 0 -19 -4 -21 -9 -1 -5 -48
-25 -104 -44 -87 -29 -116 -35 -204 -36 -57 -1 -107 -4 -110 -6 -4 -2 -18 -6
-32 -9 -41 -7 -212 -54 -338 -93 -83 -25 -137 -35 -196 -37 -77 -3 -86 -6
-187 -59 -59 -31 -107 -53 -107 -49 0 4 -4 2 -8 -4 -4 -6 -127 -72 -273 -147
-146 -75 -287 -147 -313 -161 -25 -13 -46 -21 -46 -18 0 4 -4 2 -8 -4 -4 -6
-46 -30 -94 -54 -95 -47 -113 -62 -149 -130 -29 -55 -34 -59 -157 -121 l-98
-50 -48 -112 -47 -112 -112 -70 c-62 -38 -113 -73 -115 -77 -2 -5 -10 -8 -18
-8 -9 0 -14 -12 -15 -32 -1 -18 -2 -44 -4 -58 -2 -14 -6 -52 -9 -85 -8 -95
-16 -167 -21 -201 -4 -30 -62 -135 -77 -142 -5 -2 -8 -8 -8 -13 0 -6 -18 -37
-40 -70 -22 -33 -40 -64 -40 -69 0 -4 -28 -32 -63 -61 -34 -30 -65 -58 -68
-63 -10 -14 -5 -134 6 -144 24 -21 100 -42 158 -43 l63 -1 110 86 c60 48 118
95 129 104 17 14 153 121 164 129 2 1 3 15 3 30 0 15 7 37 14 48 8 11 14 16
14 12 0 -4 24 8 52 26 29 19 60 37 68 40 8 4 27 15 42 25 51 33 138 82 146 82
13 0 30 42 26 64 -3 21 9 32 131 118 44 31 85 62 92 67 7 6 17 11 23 11 5 0
10 3 10 8 0 4 17 18 38 32 20 14 39 27 42 30 21 24 98 68 290 165 52 27 98 53
102 59 4 6 8 7 8 3 0 -5 15 0 33 11 139 85 498 240 617 267 8 2 29 8 45 15 25
10 238 69 310 86 34 8 38 10 100 28 33 10 67 23 75 30 39 32 150 95 166 94 11
0 53 3 94 7 116 11 138 13 242 20 54 4 103 8 110 9 7 1 69 30 138 66 l125 64
270 2 c173 1 292 6 330 14 33 7 66 13 73 13 6 0 12 4 12 9 0 5 3 7 8 4 8 -5
154 27 407 89 83 20 159 39 170 41 11 2 54 13 95 24 41 11 84 22 95 24 41 7
107 24 111 29 3 3 -28 18 -68 35 l-74 31 -240 1 c-131 1 -406 2 -610 3 l-370
2 -55 52 c-99 95 -154 143 -164 144 -5 1 -102 2 -215 3 -113 1 -211 5 -217 9
-14 9 -145 57 -153 57 -3 0 -14 -7 -24 -15z"/>
<path d="M9695 8862 c-2 -2 -19 -6 -37 -7 -18 -2 -49 -7 -68 -10 -19 -4 -44
-8 -55 -10 -110 -15 -162 -31 -350 -110 -11 -5 -22 -9 -25 -9 -5 -1 -56 -21
-105 -41 -119 -49 -136 -51 -415 -41 -50 2 -68 -4 -190 -66 -74 -37 -144 -67
-155 -67 -11 0 -69 -2 -130 -5 -132 -7 -289 -15 -405 -20 -473 -23 -467 -22
-535 -51 -16 -7 -66 -25 -109 -40 -44 -14 -88 -31 -99 -36 -22 -12 -33 -13
-452 -34 -55 -2 -134 -7 -175 -9 -41 -3 -129 -8 -195 -11 -66 -3 -154 -8 -195
-11 -41 -3 -85 -5 -97 -5 -12 1 -33 -9 -45 -22 -41 -40 -98 -81 -116 -83 -19
-3 -109 -13 -160 -19 -18 -1 -51 -5 -75 -9 -23 -3 -69 -8 -102 -12 -33 -3 -73
-8 -90 -10 -16 -3 -55 -7 -85 -9 -52 -5 -92 -11 -97 -15 -2 -2 -6 -3 -10 -5
-5 -1 -16 -5 -25 -9 -9 -4 -22 -9 -30 -10 -7 -2 -20 -6 -28 -9 -8 -3 -37 -13
-65 -23 -27 -10 -56 -22 -62 -27 -7 -5 -13 -7 -13 -3 0 3 -17 -1 -37 -10 -21
-9 -42 -17 -48 -18 -5 -2 -17 -6 -25 -9 -17 -7 -99 -36 -115 -41 -5 -2 -17 -6
-25 -9 -8 -4 -85 -31 -170 -62 -85 -30 -162 -58 -170 -62 -8 -3 -23 -8 -33
-10 -10 -1 -31 -10 -47 -18 -16 -8 -37 -17 -47 -18 -10 -2 -27 -8 -38 -12 -11
-5 -40 -16 -65 -26 -25 -9 -108 -47 -185 -84 -77 -37 -168 -80 -202 -95 -33
-16 -144 -84 -244 -152 -101 -67 -188 -125 -194 -128 -25 -12 -101 -64 -106
-72 -3 -5 -10 -10 -15 -11 -21 -2 -116 -70 -173 -124 -43 -42 -96 -76 -185
-122 l-125 -64 -23 -95 -22 -94 -161 -107 -160 -106 -3 -49 c-2 -40 -10 -58
-50 -109 -133 -172 -142 -182 -185 -197 -41 -15 -42 -17 -42 -62 -1 -34 5 -53
22 -73 23 -26 27 -27 134 -28 64 -1 113 2 117 8 3 5 7 24 8 42 0 17 7 38 15
46 8 7 40 44 73 80 32 36 61 66 65 65 26 -3 50 6 76 28 97 83 130 111 150 129
64 58 83 71 115 82 19 6 80 27 135 48 55 20 105 38 110 39 16 4 47 17 83 33
18 8 40 16 50 18 9 2 37 11 62 20 25 9 110 39 190 66 171 59 163 56 173 58 4
0 20 7 35 14 15 8 50 19 77 25 54 12 88 17 265 37 108 12 138 15 155 19 11 2
52 7 90 11 39 3 101 13 139 22 37 8 73 16 80 17 6 1 20 5 31 9 11 3 32 9 47
12 46 9 69 14 153 35 119 30 97 28 445 46 52 3 129 7 170 9 41 2 125 6 185 9
349 17 308 11 545 77 96 27 204 51 240 54 36 3 85 7 110 10 25 3 79 7 120 10
41 3 98 8 125 10 28 3 87 7 132 11 45 3 113 14 150 25 37 11 75 22 84 24 8 2
32 10 52 19 20 8 37 13 37 11 0 -3 12 0 28 6 15 6 79 27 142 46 86 26 200 76
450 200 184 92 347 174 361 184 14 10 28 16 31 14 2 -2 17 6 33 19 28 22 28
25 27 113 l-2 91 37 28 c20 16 61 50 92 75 58 48 91 68 119 74 9 2 51 13 92
25 41 11 82 23 90 25 8 2 29 6 45 10 17 4 57 20 90 35 33 16 94 44 135 63 70
32 209 98 341 160 31 15 61 27 67 27 7 0 12 5 12 10 0 6 7 10 15 10 27 0 177
99 257 171 14 12 42 15 133 14 l115 -1 0 122 0 122 -31 -2 c-17 0 -32 -2 -34
-4z"/>
<path d="M4217 6034 c-1 -1 -101 -5 -222 -9 -276 -7 -471 -14 -650 -20 -77 -3
-146 -6 -152 -5 -7 0 -19 0 -25 0 -44 1 -398 -11 -418 -14 -14 -3 -79 -17
-145 -31 -66 -15 -129 -29 -140 -30 -11 -1 -27 -5 -35 -8 -14 -5 -195 -47
-230 -53 -8 -2 -42 -6 -75 -9 -33 -4 -73 -9 -90 -11 -16 -3 -53 -7 -81 -9 -29
-1 -69 -5 -90 -9 -22 -3 -68 -8 -104 -11 -119 -11 -141 -16 -193 -46 -29 -16
-68 -37 -87 -47 -19 -9 -37 -19 -40 -22 -24 -24 -69 -32 -177 -33 -65 0 -127
-4 -137 -10 -21 -11 -168 -126 -177 -140 -3 -5 -10 -9 -15 -9 -5 0 -52 -20
-104 -45 -136 -64 -180 -87 -300 -155 -25 -14 -76 -44 -115 -66 l-70 -40 -10
-63 c-6 -35 -12 -67 -13 -71 -1 -5 -2 -13 -2 -18 0 -10 -159 -90 -179 -90 -6
0 -11 -3 -11 -7 0 -5 -20 -16 -44 -26 -41 -17 -44 -22 -55 -70 -6 -29 -14 -63
-18 -77 -9 -30 -8 -161 2 -370 4 -85 7 -165 6 -177 0 -13 3 -23 7 -24 4 -1 18
-3 32 -4 14 -2 50 -7 80 -10 30 -3 61 -7 68 -10 7 -2 49 9 95 26 45 17 88 32
95 32 6 0 12 4 12 9 0 4 6 8 13 8 7 0 48 14 92 31 44 17 85 32 90 33 6 1 26
10 46 18 32 14 36 20 34 47 -2 28 1 32 44 48 25 10 48 18 51 19 3 0 30 12 60
26 30 13 63 27 72 31 9 3 24 23 34 44 10 21 20 40 23 43 4 3 14 19 23 35 16
29 367 276 413 291 11 4 57 24 103 45 46 22 85 39 87 39 1 0 42 18 91 41 82
38 159 60 264 73 25 3 54 8 65 10 11 2 40 7 65 10 25 3 56 8 69 11 12 2 44 7
70 10 101 11 168 30 223 61 71 40 92 47 148 50 25 1 86 5 135 8 115 7 241 14
380 21 61 3 139 8 175 10 36 2 106 7 155 10 50 3 124 7 165 10 41 2 129 7 195
10 66 4 143 8 170 10 28 2 106 6 175 10 69 4 150 9 180 12 102 9 495 10 518 2
14 -5 22 -5 22 2 0 6 4 8 9 4 5 -3 83 -8 173 -11 90 -3 208 -7 263 -9 55 -3
179 -7 275 -11 214 -7 335 -12 335 -14 0 -1 16 -3 35 -6 19 -2 46 -7 60 -10
14 -4 34 -9 45 -11 11 -2 69 -13 129 -24 60 -11 148 -22 195 -24 118 -6 297
-14 479 -20 84 -4 168 -8 186 -9 30 -3 156 -78 164 -98 2 -4 10 -8 17 -8 7 0
15 -5 17 -11 3 -8 72 -12 237 -12 l233 0 41 -53 c45 -56 72 -71 182 -104 66
-20 100 -33 135 -50 8 -4 29 -36 47 -71 l32 -64 -4 -194 c-3 -142 -7 -198 -17
-207 -7 -6 -49 -31 -93 -54 -44 -23 -86 -47 -93 -53 -7 -6 -32 -20 -55 -32
-88 -46 -132 -70 -137 -75 -3 -3 -14 -10 -25 -16 -11 -6 -42 -23 -70 -39 -139
-77 -190 -100 -245 -109 -3 -1 -11 -5 -17 -9 -7 -5 -13 -6 -13 -3 0 3 -19 -1
-41 -10 -23 -8 -51 -16 -63 -19 -12 -2 -50 -13 -86 -24 -229 -69 -197 -63
-405 -76 -136 -9 -174 -12 -290 -20 -55 -4 -127 -9 -160 -11 -33 -2 -91 -7
-130 -9 -38 -3 -394 -8 -790 -11 -509 -3 -730 -8 -755 -16 -19 -7 -37 -13 -40
-13 -3 -1 -31 -13 -64 -28 -32 -15 -61 -27 -65 -27 -3 0 -23 -9 -43 -19 -19
-11 -38 -17 -41 -14 -3 3 -5 -31 -3 -75 2 -89 -16 -60 154 -242 33 -36 73 -80
89 -98 l29 -33 144 -1 c80 0 150 -4 155 -8 6 -4 44 -19 85 -33 41 -14 134 -46
205 -72 l130 -46 340 -3 c318 -3 343 -4 391 -24 29 -11 55 -18 58 -15 3 4 6 1
6 -5 0 -7 7 -12 15 -12 9 0 50 -13 93 -30 70 -27 91 -30 222 -34 80 -2 146 -5
148 -6 1 -1 5 -3 10 -4 4 -1 18 -9 32 -17 14 -9 86 -50 160 -90 74 -41 148
-82 165 -91 16 -9 47 -25 69 -35 l38 -19 4 -144 c1 -80 6 -235 9 -345 10 -312
11 -292 -15 -300 -11 -3 -26 -12 -32 -19 -7 -6 -31 -23 -53 -36 -22 -13 -42
-26 -45 -29 -11 -12 -101 -71 -108 -71 -5 0 -17 -8 -28 -18 -25 -23 -143 -92
-214 -125 -30 -14 -113 -53 -185 -88 -71 -35 -132 -63 -135 -64 -3 0 -14 -6
-25 -12 -11 -6 -29 -9 -40 -6 -11 2 -29 5 -40 7 -11 2 -51 11 -88 20 -38 9
-79 16 -93 16 -22 0 -134 -62 -176 -98 -10 -8 -18 -11 -18 -6 0 5 -4 4 -8 -2
-4 -5 -24 -20 -44 -32 l-36 -23 -1069 4 c-587 2 -1079 6 -1093 9 -20 5 -218
49 -325 73 -38 8 -170 37 -185 40 -8 2 -17 4 -20 5 -10 4 -26 7 -46 8 -11 1
-35 15 -52 30 l-31 28 5 385 c2 211 6 398 7 414 1 17 -1 42 -4 57 -4 14 -5 29
-1 32 3 3 6 134 8 289 l2 284 81 157 c45 87 81 164 81 172 0 8 5 14 10 14 6 0
10 5 10 10 0 6 16 46 36 88 45 95 56 123 59 142 10 67 17 106 22 113 2 4 7 24
9 44 3 20 9 57 15 82 6 25 12 58 14 73 9 63 28 111 58 142 18 18 66 71 107
117 41 45 87 96 103 113 27 31 29 35 29 92 1 26 33 62 232 262 127 128 229
232 226 232 -3 0 0 4 6 8 12 7 17 32 15 62 -1 13 -75 43 -136 56 -5 1 -37 10
-70 20 -33 10 -64 19 -70 20 -5 1 -69 20 -141 42 -125 39 -136 40 -242 37 -61
-1 -115 -6 -120 -9 -5 -3 -41 -13 -78 -21 -38 -9 -78 -18 -89 -21 -11 -3 -29
-7 -40 -9 -47 -11 -66 -15 -82 -20 -10 -3 -43 -10 -73 -16 -53 -11 -141 -65
-205 -126 -13 -13 -27 -23 -30 -23 -3 0 -27 -17 -53 -38 -40 -31 -48 -42 -47
-70 0 -18 -5 -38 -13 -44 -7 -6 -65 -38 -129 -70 -102 -51 -121 -65 -148 -106
-29 -44 -31 -53 -31 -130 1 -46 -1 -87 -4 -91 -3 -4 -68 -47 -145 -95 -77 -49
-147 -95 -155 -103 -12 -11 -15 -43 -16 -159 0 -115 -3 -148 -15 -155 -8 -5
-11 -9 -7 -9 4 0 -5 -21 -20 -47 -15 -27 -37 -69 -50 -95 -18 -37 -39 -57 -99
-97 -42 -28 -79 -51 -83 -51 -11 0 -34 -30 -37 -49 -1 -9 -5 -61 -8 -116 -8
-162 -14 -266 -20 -340 -11 -151 -18 -282 -19 -332 -1 -29 -4 -53 -8 -53 -3 0
-4 -8 -1 -19 3 -12 -17 -51 -54 -108 l-59 -89 1 -500 1 -499 -48 -79 c-41 -66
-47 -81 -36 -95 7 -9 30 -37 52 -64 l39 -47 144 0 143 0 88 -41 c48 -23 92
-42 97 -43 6 -2 46 -20 90 -40 49 -24 99 -40 130 -42 28 -2 79 -6 115 -8 36
-3 97 -8 135 -12 72 -6 121 -10 235 -19 36 -2 90 -7 120 -9 30 -3 91 -8 135
-11 140 -10 189 -22 445 -108 64 -22 74 -22 535 -19 259 1 488 3 510 3 22 0
49 -2 60 -4 11 -3 24 -2 29 1 5 3 176 6 380 8 204 2 587 5 851 8 l480 5 100
34 c55 19 130 46 168 60 37 15 67 24 67 20 0 -3 6 -1 13 4 20 16 138 52 190
57 27 3 52 8 55 10 4 2 30 7 57 10 28 3 64 8 80 12 17 3 39 7 50 9 21 2 49 14
220 95 61 29 135 63 165 77 93 41 125 58 128 66 2 4 7 7 12 7 5 0 21 5 37 12
15 6 30 12 33 13 13 4 245 117 249 121 2 2 4 17 3 34 0 22 7 35 28 50 15 11
31 20 35 20 4 0 30 16 59 35 29 19 56 35 60 35 28 0 69 54 122 163 32 67 68
129 79 138 11 9 31 26 44 38 13 12 27 21 30 21 3 0 25 18 49 40 23 21 42 37
42 34 0 -3 11 6 25 19 l26 23 0 269 c0 206 -3 271 -13 281 -14 13 -235 151
-252 157 -5 2 -11 17 -12 34 -1 17 -5 36 -9 42 -3 6 -2 11 3 11 4 0 7 16 6 36
-3 35 -18 64 -34 64 -4 0 -124 57 -266 127 -143 70 -262 126 -266 125 -3 -1
-12 5 -18 13 -7 8 -17 15 -22 15 -5 0 -55 22 -111 50 l-102 49 -183 0 -182 -1
-75 54 c-41 29 -75 56 -75 59 0 8 104 46 144 53 16 3 50 9 75 13 51 8 60 10
64 12 1 1 17 4 36 7 19 2 44 6 55 8 90 19 122 24 125 20 2 -2 10 1 18 8 7 6
16 8 19 5 3 -3 31 1 62 8 31 8 75 16 97 19 23 4 50 8 62 10 11 3 38 7 59 10
22 4 64 11 94 16 65 11 101 17 155 25 23 3 52 8 65 11 14 2 39 7 55 9 17 2 48
6 70 9 35 5 316 93 370 116 22 9 47 17 55 18 3 0 35 12 73 26 37 14 67 23 67
20 0 -4 206 101 354 181 44 24 103 70 163 128 56 55 123 109 165 133 74 42 83
55 93 129 2 17 4 30 5 30 1 0 3 11 5 25 2 14 6 39 9 55 4 17 9 41 11 55 3 14
8 36 11 50 10 39 7 91 -10 170 -2 14 -8 43 -11 65 -4 22 -8 47 -10 55 -2 8 -4
21 -4 28 -1 7 -9 16 -18 19 -10 4 -20 9 -23 13 -3 3 -39 31 -80 61 -41 31
-128 94 -192 142 -65 48 -122 87 -127 87 -5 0 -47 15 -93 34 -278 114 -399
158 -493 181 -57 14 -110 25 -116 25 -6 0 -79 35 -163 77 l-151 77 -145 2
c-135 2 -151 4 -235 34 -49 18 -94 33 -100 35 -5 1 -17 5 -25 8 -8 3 -60 22
-115 43 l-100 37 -211 2 c-117 1 -216 5 -222 9 -10 6 -87 23 -142 31 -14 2
-117 22 -230 45 -238 47 -258 51 -285 56 -11 1 -31 5 -44 8 -13 3 -74 8 -135
11 -196 11 -383 22 -486 29 -41 3 -129 8 -195 12 -66 3 -145 8 -175 10 -30 2
-93 5 -140 8 -47 2 -125 7 -175 10 -211 15 -269 18 -428 20 -92 1 -168 1 -170
0z"/>
</g>
</svg>
