<svg version="1" xmlns="http://www.w3.org/2000/svg" width="152" height="152" viewBox="0 0 114.000000 114.000000"><path d="M22.4 35.7c2.4 7.1 4.9 15.2 5.6 18.1l1.4 5.3 4.5-.3 4.5-.3 1.9-6.5c1-3.6 2.2-6.9 2.7-7.3.4-.5 1.6 2.5 2.6 6.7l1.8 7.6h4.3c2.6 0 4.5-.5 4.7-1.3.2-.6 2.8-8.7 5.8-18L67.5 23h-8.3l-1.8 7.7-1.8 7.8-1.2-5c-.7-2.8-1.3-6.2-1.3-7.8C53 23 53 23 45.5 23c-4.1 0-7.5.3-7.5.6 0 .4.5 2.4 1.1 4.4.7 2.3.9 5.4.4 7.7l-.8 3.8-1.3-4c-.7-2.2-1.8-5.9-2.4-8.3L33.9 23H18.2l4.2 12.7zm45.3 24c-1.5.4-1.7 1.7-1.1 15.1.8 22.9.5 22.2 9.3 22.2 10.2 0 18.4-4.4 21-11.3 2.6-6.9.4-17.4-4.5-21.8-4.3-3.8-17.6-6-24.7-4.2zm18.7 16.9c3.6 3.5.9 12.4-3.7 12.4-1.8 0-1.9-.5-1.3-5.3.3-2.8.6-6 .6-7 0-2.1 2.3-2.2 4.4-.1z"/></svg>