<svg xmlns="http://www.w3.org/2000/svg" viewBox="0 0 504.124 504.124"><path d="M153.6 0h196.923c21.662 0 39.385 17.723 39.385 39.385v425.354c0 21.662-17.723 39.385-39.385 39.385H153.6c-21.662 0-39.385-17.723-39.385-39.385V39.385C114.215 17.723 131.939 0 153.6 0z" fill="#e4e7e7"/><path d="M145.724 70.892H358.4c4.332 0 7.877 3.545 7.877 7.877v346.585c0 4.332-3.545 7.877-7.877 7.877H145.724c-4.332 0-7.877-3.545-7.877-7.877V78.769c-.001-4.332 3.545-7.877 7.877-7.877z" fill="#3f5e6d"/><path d="M288.689 230.006c-4.726-5.908-11.422-9.452-17.723-9.452-8.271 0-11.815 3.938-17.329 3.938-5.908 0-10.24-3.938-17.723-3.938-7.089 0-14.572 4.332-19.298 11.815-6.695 10.24-5.514 29.932 5.12 46.474 3.938 5.908 9.058 12.603 15.754 12.603 5.908 0 7.877-3.938 15.754-3.938 8.271 0 9.846 3.938 15.754 3.938 6.695 0 12.209-7.483 16.148-13.391 2.757-4.332 3.938-6.302 5.908-11.422-15.362-5.907-17.725-27.962-2.365-36.627zm-21.66-16.935c3.151-3.938 5.514-9.846 4.726-15.754-5.12.394-11.028 3.545-14.572 7.877-3.151 3.938-5.908 9.846-4.726 15.36 5.512 0 11.421-3.151 14.572-7.483z" fill="#4e6b78"/><path d="M252.063 448.985c11.028 0 19.692 8.665 19.692 19.692 0 11.028-8.665 19.692-19.692 19.692-11.028 0-19.692-8.665-19.692-19.692-.001-11.028 8.663-19.692 19.692-19.692zM228.431 27.569h47.262c4.332 0 7.877 3.545 7.877 7.877s-3.545 7.877-7.877 7.877h-47.262c-4.332 0-7.877-3.545-7.877-7.877s3.545-7.877 7.877-7.877z" fill="#bfc3c5"/></svg>