<svg xmlns="http://www.w3.org/2000/svg" viewBox="0 0 152.59911 38.645306" height="38.645" width="152.599"><path d="M3.825 36.237C.03 33.044-1.058 28.19 1.088 24.04c1.648-3.187 3.399-4.243 7.034-4.243 1.926 0 2.183-.427 1.805-3-.595-4.056.573-11.326 2.172-13.512.944-1.292 2.026-1.602 3.923-1.125 4.945 1.24 5.756 10.437 2.074 23.52-1.052 3.737-1.196 5.703-.472 6.427 2.528 2.528 9.996-8.749 8.117-12.258-.565-1.056-1.027-2.85-1.027-3.986 0-2.946 3.558-2.67 5.592.434.97 1.48 2.586 2.5 3.964 2.5 3.074 0 3.82 1.435 3.608 6.93-.206 5.316.812 7.4 3.174 6.494 1.76-.676 2.16-1.897 3.169-9.674.338-2.612.983-4.75 1.432-4.75 1.963 0 3.292 3.19 2.742 6.579-.672 4.138.778 8.768 2.56 8.174.675-.225 2.641-2.763 4.368-5.639 2.621-4.364 3.216-6.53 3.596-13.087.291-5.04 1.062-8.785 2.148-10.443C63.05.354 63.969.195 66.253 2.48c2.187 2.186 1.447 8.03-2.006 15.838-3.032 6.855-3.218 11.423-.596 14.618 1.575 1.92 2.277 2.155 3.75 1.259 2.418-1.47 2.809-4.851.88-7.605-1.712-2.445-2.121-6.793-.639-6.793 1.443 0 4.137 3.04 5.222 5.894l.982 2.583 1.912-2.488c1.156-1.505 1.92-4.115 1.934-6.602.036-6.755 1.933-14.742 3.987-16.797C83.34.727 83.833.651 85.266 1.84c2.402 1.994 1.483 9.956-2.056 17.811-2.73 6.062-2.797 6.545-1.43 10.49 1.69 4.872 4.159 5.77 6.413 2.329 1.5-2.29 1.463-2.723-.572-6.627-1.695-3.25-1.91-4.439-.972-5.361.931-.917 1.754-.55 3.634 1.62 1.337 1.544 2.43 3.457 2.43 4.25 0 2.434 1.46 1.614 3.212-1.805.924-1.802 1.824-6.367 2.022-10.25.352-6.93 2.209-12.508 4.4-13.22.624-.203 1.912.408 2.862 1.358 2.234 2.234 1.52 8.008-1.962 15.883-3.032 6.855-3.218 11.423-.596 14.618 1.575 1.92 2.277 2.155 3.75 1.259 2.418-1.47 2.809-4.851.88-7.605-1.5-2.141-2.185-6.793-1.001-6.793 1.874 0 4.373 2.386 5.308 5.07 1.974 5.661 3.273 2.842 3.5-7.596.304-14.054 3.995-20.55 8.893-15.652 1.526 1.527 2.218 3.74 2.534 8.103.528 7.304-.001 9.617-3.32 14.507-2.407 3.547-2.47 3.937-1.002 6.177 2.623 4.002 7.52 2.852 7.52-1.766 0-5.793 4.888-11.843 9.568-11.843 2.487 0 5.433 2.917 5.433 5.379 0 3.029-2.764 7.192-5.675 8.547-2.791 1.3-2.799 1.328-.639 2.32 2.953 1.355 6.949.21 10.035-2.876 1.996-1.996 2.734-2.259 3.399-1.21 1.225 1.933 1.123 2.27-1.37 4.54-5.028 4.58-10.465 5.533-15.809 2.77-2.174-1.124-3.47-1.257-4.884-.5-3.107 1.662-7.886 1.201-10.057-.97-1.1-1.1-2-2.45-2-3 0-.55-1.149-1-2.552-1-1.91 0-2.803.721-3.55 2.862-1.389 3.984-5.383 5.705-8.5 3.663-1.296-.849-3.022-2.83-3.835-4.404-1.165-2.252-2.002-2.76-3.938-2.39-1.543.295-2.682 1.36-3.058 2.857-.33 1.313-1.682 3.097-3.007 3.965-2.176 1.425-2.695 1.429-5.39.035-1.64-.848-3.587-2.907-4.325-4.576-.807-1.823-1.876-2.83-2.676-2.523-.733.281-1.77.511-2.303.511-.534 0-1.418 1.286-1.966 2.857-.548 1.57-2.079 3.436-3.403 4.144-2.034 1.089-2.798 1.032-4.931-.366-1.388-.91-3.256-3.068-4.15-4.797l-1.626-3.144-2.472 3.16c-3.517 4.492-5.45 5.309-8.648 3.65-2.275-1.18-3.065-1.18-5.34 0-1.82.944-3.234 1.083-4.444.435-2.67-1.43-3.317-2.917-3.876-8.929-.709-7.626-2.726-7.609-6.345.054-1.56 3.3-3.922 6.714-5.25 7.584-2.155 1.412-2.661 1.42-4.7.084-2.105-1.378-2.507-1.308-5.057.885-3.506 3.017-4.783 2.99-8.547-.177zm7.352-3.4c1.84-2.032 1.528-6.141-.666-8.784-2.549-3.071-6.797.126-6.797 5.116 0 5.488 4.026 7.467 7.463 3.668zm128.607-8.17c.791-1.48.805-2.395.046-3.154-1.527-1.527-5.116 1.963-5.116 4.974 0 2.061.265 2.239 1.977 1.322 1.087-.582 2.48-1.996 3.093-3.142zm-123.712-4.62c.918-5.555.772-14.052-.253-14.685-1.485-.918-2.105 2.18-2.105 10.517 0 8.29 1.298 10.584 2.358 4.168zm105.544-1.4c1.34-3.842 1.444-11.518.167-12.307-1.507-.932-2.15 1.027-2.772 8.456-.633 7.547.654 9.45 2.605 3.852zm-57.412-9.85c.537-2.608.43-3.223-.421-2.414-.628.598-1.38 2.848-1.67 5-.644 4.76.997 2.731 2.091-2.586zm19.072.414c.535-4.274-.668-2.404-1.984 3.086-.525 2.188-.42 2.706.387 1.914.61-.598 1.328-2.848 1.597-5zm19.928-.414c.537-2.608.43-3.223-.421-2.414-.628.598-1.38 2.848-1.67 5-.644 4.76.997 2.731 2.091-2.586zm-58.24 6.35c-1.718-.71-1.572-3.838.25-5.35 2.003-1.662 4.717.487 4.298 3.402-.3 2.087-2.22 2.908-4.548 1.947z" fill="#bfbfbf"/></svg>