<svg xmlns="http://www.w3.org/2000/svg" viewBox="0 0 212.14323 25.578419" height="25.578" width="212.143"><path d="M.032 24.764c-.289-.29 1.39-5.802 3.73-12.25C7.458 2.335 8.313.789 10.245.789c1.925 0 2.797 1.55 6.47 11.5 2.334 6.325 4.052 11.838 3.818 12.25-1.05 1.851-3.536.448-4.872-2.75-1.323-3.167-1.84-3.5-5.435-3.5-3.596 0-4.112.333-5.436 3.5-1.315 3.147-3.327 4.405-4.757 2.975zm13.193-10.109c0-1.737-2.41-8.366-3.042-8.366-.399 0-.966 1.013-1.261 2.25a84.715 84.715 0 0 1-1.233 4.5c-.62 2.001-.353 2.25 2.419 2.25 1.714 0 3.117-.285 3.117-.634zm16.551 9.454C28.582 20.523 24.225 2.932 24.225 1.7c0-1.996 2.748-1.754 3.853.34.507.962 1.472 4.45 2.143 7.75 1.908 9.38 2.468 9.38 4.947-.004 2.192-8.297 4.312-11.32 6.01-8.572.413.669 1.567 4.784 2.563 9.146.996 4.36 2.075 7.929 2.397 7.928.323 0 1.487-3.938 2.587-8.75C50.459 1.952 51.024.747 52.975.47c1.237-.176 2.25-.124 2.25.115 0 1.821-6.128 23.232-6.858 23.962-.512.512-1.74.774-2.73.583-1.338-.258-2.364-2.524-4.004-8.844-1.213-4.673-2.42-7.822-2.68-6.997-.261.825-1.32 4.65-2.354 8.5-1.56 5.809-2.263 7.055-4.131 7.32-1.239.176-2.45-.274-2.692-1zm27.406-1.43c-1.614-4.246-2.136-10.575-1.147-13.89l.895-3 1.142 4c.628 2.2 1.144 4.761 1.147 5.691.015 4.424 1.82 1.946 3.501-4.804 3.369-13.529 5.282-13.603 8.9-.347 1.248 4.572 2.51 7.896 2.807 7.387.296-.51 1.308-4.443 2.25-8.74 1.633-7.45 3.516-10.215 5.498-8.07.448.486-.6 6.058-2.33 12.383-2.937 10.743-3.308 11.5-5.632 11.5-2.268 0-2.663-.687-4.457-7.75-1.082-4.262-2.222-7.75-2.531-7.75-.31 0-1.45 3.488-2.532 7.75-1.665 6.554-2.315 7.8-4.217 8.07-1.68.238-2.512-.375-3.294-2.43zm28.03.585c-1.633-3.049-2.344-12.017-1.188-14.975.883-2.26 1.102-1.902 2.289 3.75.721 3.438 1.6 6.25 1.953 6.25.352 0 1.177-2.398 1.833-5.33C92.334 2.974 93.316.29 94.736.29c1.906 0 2.886 2.138 4.99 10.878 1.994 8.28 2.406 8.056 4.992-2.708 1.65-6.87 3.179-9.108 5.317-7.787.498.308-.541 5.859-2.31 12.338-2.96 10.852-3.401 11.78-5.6 11.78-2.11 0-2.607-.815-4.271-7-1.036-3.85-2.096-7.676-2.357-8.5-.262-.826-1.466 2.324-2.677 7-1.828 7.057-2.563 8.552-4.33 8.81-1.367.2-2.542-.459-3.279-1.836zm29.005 1.275c-.004-.412 1.858-5.85 4.14-12.085 4.145-11.328 5.898-13.66 8.299-11.052 1.216 1.322 8.569 21.024 8.569 22.962 0 .509-.865.925-1.923.925-1.31 0-2.29-1.114-3.077-3.5-1.085-3.286-1.421-3.5-5.5-3.5-4.08 0-4.416.214-5.5 3.5-.788 2.386-1.768 3.5-3.078 3.5-1.057 0-1.926-.337-1.93-.75zm14.007-9.5c0-.137-.814-2.39-1.807-5.006l-1.807-4.756-1.6 5.006-1.601 5.006h3.408c1.874 0 3.407-.112 3.407-.25zm14.462 9.01c-.293-.764-.404-6.31-.247-12.324l.286-10.936 6.425.107c5.385.09 6.72.472 8.25 2.36 2.4 2.965 2.32 7.275-.178 9.536-1.999 1.809-1.998 1.82.5 6.083 3.02 5.154 3.123 6.414.523 6.414-1.324 0-2.693-1.407-4.134-4.25-3.761-7.418-6.643-7.828-7.082-1.009-.23 3.576-.735 4.823-2.057 5.074-.965.183-1.993-.292-2.286-1.055zm11.707-14.23c1.467-3.22-.326-5.53-4.29-5.53-2.691 0-2.878.26-2.878 4 0 3.784.163 4 3.021 4 2.243 0 3.312-.636 4.147-2.47zm14.832 2.97V0l6.494.606c3.572.334 7.397 1.09 8.5 1.68 6.956 3.723 6.956 17.283 0 21.006-1.103.59-4.928 1.346-8.5 1.68l-6.494.606zm13.545 6.046c5.373-5.374 1.59-14.546-6-14.546h-3.545v17h3.545c2.431 0 4.317-.771 6-2.454zm15.085 4.82c-2.46-1.334-2.67-1.755-1.469-2.956 1.126-1.125 2.006-1.173 4.473-.242 6.74 2.544 9.265-3.072 2.616-5.818-5.254-2.17-7.25-4.216-7.25-7.432 0-5.21 6.363-8.251 12.435-5.943 2.777 1.056 3.041 1.723 1.591 4.017-.751 1.188-1.196 1.239-2.185.25-1.682-1.683-5.326-1.568-6.805.214-1.668 2.01-.546 3.397 4.503 5.561 6.727 2.884 8.255 7.28 4.006 11.529-2.867 2.867-7.542 3.189-11.915.82z" fill="#bfbfbf"/></svg>