<svg xmlns="http://www.w3.org/2000/svg" viewBox="0 0 159.20029 29.621048" height="29.621" width="159.2"><path d="M7.2 28.597c-6.03-2.649-8.97-10.354-6.08-15.942 1.908-3.689 3.043-4.135 2.225-.875-.674 2.686.21 6.72 1.472 6.72.486 0 .883-.918.883-2.04 0-3.473 3.923-9.941 7.29-12.02 5.122-3.161 7.886-2.269 9.48 3.06.74 2.475 1.168 6.893.95 9.819-.319 4.281-.982 5.904-3.401 8.324-3.214 3.214-9.126 4.576-12.819 2.954zm28.597-.306c-8.896-4.78-8.546-17.616.585-21.431C43 4.094 50.066 7.6 51.317 14.27c.857 4.569-.329 5.196-9.867 5.215-4.262.008-7.75.387-7.75.84 0 .455 1.042 1.805 2.315 3 2.756 2.59 6.806 2.797 10.272.526 1.908-1.25 2.796-1.368 3.676-.489.88.88.653 1.667-.94 3.26-2.575 2.575-9.835 3.492-13.226 1.67zM46.7 14.071c0-2.263-2.906-4.571-5.757-4.571-2.479 0-7.243 3.403-7.243 5.174 0 .454 2.925.826 6.5.826 4.967 0 6.5-.337 6.5-1.429zm8.667 14.762c-.367-.366-.667-5.541-.667-11.5 0-10.166.123-10.833 2-10.833 1.195 0 2 .667 2 1.655 0 1.51.153 1.517 1.75.078 2.848-2.567 6.714-3.062 10.128-1.296 3.776 1.952 4.298 3.829 3.919 14.066C74.263 27.313 73.884 29 72.7 29c-1.168 0-1.61-1.79-2-8.102-.668-10.828-3.244-13.717-8.777-9.841-1.949 1.365-2.223 2.448-2.223 8.8 0 7.78-1.8 11.51-4.333 8.976zm30.594-.15c-1.396-.888-9.26-18.493-9.26-20.733 0-.798.86-1.45 1.912-1.45 1.468 0 2.681 1.952 5.229 8.417 1.824 4.63 3.599 8.244 3.943 8.03.344-.212 1.874-3.811 3.401-7.998 2.71-7.428 4.656-9.707 6.617-7.746 1.545 1.545-7.667 22.328-9.876 22.282-.4-.009-1.284-.37-1.966-.803zm17.24-.378c-2.702-1.532-3.467-2.828-3.485-5.9-.022-3.649 3.117-6.067 9.103-7.013 6.023-.952 6.673-1.41 5.244-3.69-1.39-2.217-4.808-2.674-8.513-1.14-3.9 1.616-5.688.007-2.848-2.563 3.125-2.829 11.27-2.67 14.22.278 1.943 1.943 2.33 3.536 2.635 10.844.387 9.316-.796 12.497-3.359 9.027-1.27-1.72-1.532-1.738-3.655-.25-2.655 1.86-6.487 2.026-9.343.407zm9.928-4.376c.864-.865 1.571-2.44 1.571-3.5 0-1.578-.715-1.929-3.928-1.929-3.559 0-7.072 1.923-7.072 3.871 0 3.085 6.781 4.205 9.429 1.558zm11.995 3.086c-2.413-2.413-2.477-2.844-2.205-14.75C123.183.76 123.324 0 125.2 0c1.526 0 2.075.771 2.314 3.25.277 2.877.658 3.25 3.323 3.25 4.025 0 3.641 3.35-.438 3.82l-2.783.321.292 7.18c.285 7.005.359 7.187 3.042 7.495 2.985.344 3.72 2.598 1.169 3.577-2.835 1.088-4.468.649-6.995-1.878zm16.673 1.276c-8.974-4.821-8.592-17.597.643-21.455 4.677-1.955 9.458-1.025 13.555 2.636 2.808 2.509 3.205 3.492 3.205 7.927 0 4.338-.447 5.51-3.128 8.19-3.604 3.605-10.253 4.863-14.275 2.702zm10.589-4.965C157.16 18.84 153.656 9.5 147.2 9.5c-1.425 0-3.695 1.105-5.045 2.455-7.128 7.128 2.892 18.265 10.23 11.37z" fill="#bfbfbf"/></svg>