<svg xmlns="http://www.w3.org/2000/svg" viewBox="0 0 198.81404 45.027573" height="45.028" width="198.814"><path d="M13.5 43.049C5.42 39.3 0 31.029 0 22.449c0-5.721 2.172-11.021 6.3-15.372C20.287-7.664 45 2.152 45 22.449c0 16.137-17.066 27.297-31.5 20.6zm20.444-2.831c3.315-2.022 5.305-4.256 7.306-8.203 3.564-7.03 3.564-12.102 0-19.132-7.568-14.929-28.5-15.584-36.97-1.158C-2.707 23.627 3.3 38.68 16.764 43.01c4.574 1.47 12.234.226 17.18-2.791zm-15.589 1.156c-.801-.365-.363-2.905 1.463-8.473 1.433-4.374 2.848-7.952 3.144-7.952.679.001 6.012 15.36 5.508 15.863-.647.647-8.92 1.107-10.115.562zm-9.219-5.29c-4.71-4.71-6.618-10.435-5.643-16.935.366-2.443 1.012-4.05 1.435-3.57 1.126 1.273 9.148 23.627 8.656 24.119-.23.23-2.231-1.396-4.448-3.613zm27.292-9.21c2.83-8.557 4.203-11.543 4.712-10.25 1.243 3.153.92 9.243-.693 13.107-1.45 3.47-6.075 9.218-7.417 9.218-.327 0 1.202-5.434 3.398-12.075zm-22.215-2.727C12.446 18.757 11 14.065 11 13.721c0-.344.787-.831 1.75-1.083.963-.251.063-.51-2-.573C8.687 12 7 11.502 7 10.955c0-1.921 8.212-6.915 12.404-7.544 4.612-.692 11.01.647 14.127 2.955 1.959 1.451 1.959 1.467 0 2.918-1.95 1.444-1.947 1.507.346 6.402 2.296 4.903 2.301 4.996.588 11.104-.95 3.387-2.007 6.145-2.347 6.13-.34-.017-1.996-4.317-3.681-9.556-2.706-8.414-2.881-9.632-1.5-10.44 1.05-.614-.57-.886-4.937-.829-3.575.047-5.751.284-4.836.527.915.242 2.396 2.27 3.291 4.506 1.545 3.86 1.52 4.387-.496 10.443-1.167 3.508-2.215 6.378-2.328 6.378-.113 0-1.651-4.41-3.418-9.802zm39.327.725c-1.506-4.633-3.644-9.21-4.75-10.173-1.958-1.704-1.886-1.75 2.722-1.75 3.919 0 4.535.238 3.584 1.385-.868 1.045-.847 2.515.084 6 .68 2.538 1.568 4.615 1.976 4.615.408 0 1.522-2.475 2.476-5.5.953-3.025 2.078-5.5 2.5-5.5.421 0 1.546 2.475 2.5 5.5.953 3.025 2.003 5.5 2.332 5.5.33 0 1.199-2.03 1.931-4.511 1.06-3.59 1.08-4.815.096-6-1.064-1.282-.626-1.48 3.137-1.422 3.9.06 4.127.186 2.104 1.161-1.698.819-2.953 3.307-5 9.917-1.502 4.854-2.957 8.829-3.232 8.834-.275.004-1.445-3.026-2.601-6.735-1.22-3.917-2.341-6.115-2.674-5.244-.315.825-1.444 3.94-2.509 6.923l-1.936 5.424zm22.655 5.587C73.99 28.605 73 26.895 73 24.95c0-4.252 5.298-8.376 9.819-7.642C87.703 18.1 90 20.545 90 24.95s-2.297 6.85-7.181 7.642c-2.752.446-4.06.025-6.624-2.132zm10.23-2.76c1.532-4.384-.288-8.185-4.097-8.556-3.274-.32-6.328 2.482-6.328 5.806 0 .855.718 2.58 1.596 3.833 2.326 3.322 7.512 2.685 8.829-1.083zm88.327 2c-.482-3.27.283-3.526 2.055-.687.792 1.267 2.108 1.942 3.413 1.75 3.604-.532 3.103-2.608-1.155-4.78-3.017-1.54-4.065-2.682-4.065-4.431 0-3.143 1.957-4.598 5.819-4.326 2.671.188 3.173.622 3.149 2.724-.025 2.18-.16 2.276-1.048.75-1.083-1.86-4.418-2.372-5.374-.825-.314.509 1.312 2.196 3.615 3.75 5.099 3.44 5.563 4.601 2.902 7.262-1.424 1.424-3.12 1.984-5.484 1.812-2.89-.21-3.485-.677-3.827-3zm13.275-.25l.017-3 1.802 2.342c1.215 1.58 2.592 2.231 4.228 2 3.436-.485 2.91-1.916-1.898-5.158-2.297-1.55-4.176-3.43-4.176-4.179 0-2.54 3.03-4.501 6.564-4.25 2.82.201 3.432.646 3.434 2.495.002 2.546-1.489 3.02-2.36.75-.693-1.808-4.64-2.02-4.635-.25 0 .687 1.683 2.15 3.738 3.25 4.277 2.29 5.188 4.815 2.72 7.542-1.207 1.334-2.855 1.829-5.582 1.675-3.588-.201-3.867-.435-3.852-3.217zM92.75 31.286c.8-.322 1.25-2.606 1.25-6.337s-.45-6.015-1.25-6.338c-.688-.277 1.282-.54 4.378-.583 3.779-.053 6.023.398 6.832 1.373 1.473 1.774.546 5.14-1.648 5.981-1.395.536-1.3.951.713 3.093 1.278 1.36 3.37 2.474 4.65 2.474 2.172 0 2.325-.39 2.325-5.917 0-3.798-.448-6.097-1.25-6.421-.688-.277 1.462-.54 4.777-.583 7.639-.1 10.473 1.653 10.473 6.477 0 5.946-2.56 7.442-12.75 7.453-8.657.009-8.779-.026-11.473-3.25l-2.723-3.26-.027 2.677c-.017 1.724.596 2.84 1.723 3.134.963.252-.275.474-2.75.495-2.475.02-3.937-.19-3.25-.468zm26.421-1.992c3.839-3.474 1.353-10.345-3.742-10.345-2.268 0-2.429.353-2.429 5.333 0 2.933.3 5.633.667 6 1.163 1.163 3.613.723 5.504-.988zM101 23.449c.993-1.197.993-1.804 0-3-2.082-2.508-4-1.79-4 1.5 0 3.289 1.918 4.008 4 1.5zm25 7.77c2.435-.926 2.969-2.448 2.985-8.52.011-4.43-.444-6.21-1.985-7.75l-2-2 5.25.014c6.636.02 10.156 1.731 10.554 5.133.39 3.333-2.14 5.853-5.875 5.853-2.577 0-2.929.355-2.929 2.95 0 1.755.71 3.363 1.75 3.97 1.336.778.448 1.007-3.75.97-3.025-.026-4.825-.305-4-.62zm11.515-11.318c.782-2.462-1.048-4.952-3.637-4.952-1.48 0-1.878.742-1.878 3.5 0 3.04.32 3.5 2.433 3.5 1.573 0 2.662-.724 3.082-2.048zm5.735 11.358c1.418-.37 1.75-1.58 1.75-6.384 0-3.284-.446-5.926-1-5.926-.55 0-1-.338-1-.75-.002-1.086 10.268-.234 11.75.975 1.87 1.525 1.509 4.48-.739 6.054-1.964 1.376-1.959 1.421.411 3.647 3.843 3.61 6.021 2.45 6.392-3.402.24-3.807-.09-5.253-1.427-6.23-2.405-1.76-1.796-1.929 5.363-1.495 5.634.341 6.247.592 6.22 2.54-.028 1.948-.131 1.989-1.05.41-.56-.962-2.122-1.75-3.47-1.75-1.947 0-2.45.514-2.45 2.5 0 1.556.567 2.5 1.5 2.5.825 0 1.5-.45 1.5-1s.352-1 .783-1c.43 0 .692 1.238.581 2.75-.286 3.902-.314 3.941-1.444 2-1.548-2.656-3.092-2.092-2.736 1 .39 3.402 4.474 4.44 6.51 1.655 1.22-1.67 1.306-1.644 1.306.405 0 2.096-.4 2.191-9.25 2.2-9.222.009-9.258-.001-11.973-3.25-2.494-2.984-2.725-3.074-2.75-1.059-.015 1.21.76 2.659 1.723 3.22 1.347.784.597 1-3.25.933-2.75-.047-4.213-.291-3.25-.543zm8.75-7.81c.993-1.197.993-1.804 0-3-2.082-2.508-4-1.79-4 1.5 0 3.289 1.918 4.008 4 1.5z" fill="#d2d2d2"/></svg>