<svg xmlns="http://www.w3.org/2000/svg" viewBox="0 0 131.10228 37.76429" height="37.764" width="131.102"><path d="M12.674 35.387c-.867-2.281-1.411-2.558-3.932-2.005-2.332.512-3.152.22-4.041-1.442-1.333-2.49-.65-3.855 2.535-5.066 2.156-.82 2.268-1.175 1.273-4.03-.89-2.555-1.527-3.048-3.46-2.678-5.496 1.05-7.077-4.29-1.857-6.275 2.151-.818 2.398-1.289 1.53-2.913-1.46-2.727-.262-5.082 2.587-5.082 1.659 0 2.716.785 3.368 2.5 1.102 2.897.811 2.811 4.797 1.422 2.7-.942 2.982-1.374 2.213-3.397-.595-1.564-.461-2.892.41-4.084 1.631-2.23 4.3-1.308 5.523 1.909.722 1.9 1.451 2.298 3.491 1.908 3.503-.67 5.854 1.336 4.51 3.848-.558 1.042-1.647 1.894-2.42 1.894-2.16 0-2.602 1.477-1.44 4.811.954 2.737 1.388 2.987 4.34 2.508 2.51-.407 3.437-.125 3.946 1.201.763 1.99-.704 4.134-3.415 4.995-1.512.48-1.691 1.048-.947 3.005.677 1.78.515 2.815-.617 3.947-2.193 2.193-3.263 1.918-5.12-1.317-1.495-2.606-1.908-2.767-4.806-1.877-2.83.869-3.16 1.362-3.068 4.6.087 3.038-.262 3.68-2.145 3.947-1.664.236-2.51-.369-3.255-2.329zM19.528 22.8c1.732-.604 3.15-1.212 3.15-1.351 0-.61-2.221-6.552-2.45-6.552-.138 0-1.667.494-3.396 1.097-2.74.955-3.063 1.437-2.511 3.75 1.11 4.654.929 4.547 5.207 3.056zm28.4 6.066c-2.392-.96-2.691-1.726-1.444-3.69.598-.942 1.626-.959 4.509-.074 2.835.87 4.017.863 4.91-.03 1.51-1.51.332-2.595-4.483-4.134-5.746-1.836-7.43-6.354-3.743-10.04 3.393-3.393 14.727-2.057 13.334 1.572-.483 1.258-1.46 1.504-4.23 1.064-6.258-.995-8.329 2.354-2.363 3.82 4.845 1.192 7.26 3.357 7.26 6.51 0 5.086-7.109 7.672-13.75 5.002zm16.75-13.969c0-15.127.001-15.138 2.25-14.82 2.215.316 2.25.545 2.25 14.82 0 14.276-.035 14.505-2.25 14.82-2.249.32-2.25.308-2.25-14.82zm9 13c-2.513-2.512-2.541-5.11-.089-8.139 1.506-1.86 2.885-2.36 6.5-2.36 4.96 0 6.11-1.616 2.518-3.538-1.42-.76-2.959-.8-4.89-.126-1.953.68-3.161.642-3.93-.127-1.638-1.638-1.385-2.263 1.438-3.549 3.898-1.776 8.89-1.391 11.818.912 2.474 1.946 2.634 2.587 2.634 10.5 0 7.449-.209 8.427-1.8 8.427-.99 0-2.289-.489-2.887-1.087-.783-.782-1.275-.782-1.759 0-1.145 1.854-7.383 1.258-9.554-.913zm9.8-3.2c2.27-2.27 1.33-3.8-2.332-3.8-3.52 0-5.333 1.792-3.998 3.953.879 1.421 4.851 1.326 6.33-.153zm14.556 4.209c-5.54-2.236-7.289-11.65-3.074-16.551 2.662-3.095 10.009-4.442 13.636-2.501 3.32 1.777.934 3.972-4.1 3.77-2.937-.116-4.407.357-5.424 1.748-1.976 2.703-1.728 6.192.605 8.526 2.21 2.21 4.196 2.5 6.961 1.02 1.347-.72 2.177-.56 3.147.609 1.111 1.339 1.02 1.804-.586 2.979-2.103 1.537-7.837 1.743-11.165.4zm14.867-13.759c.27-14.439.324-14.756 2.526-15.07 2.187-.31 2.25-.072 2.25 8.46v8.777l4.392-4.31c3.387-3.324 4.874-4.157 6.5-3.64 2.798.887 2.668 1.623-.892 5.034-1.65 1.58-3 3.175-3 3.543 0 .368 1.634 2.808 3.63 5.423 2.882 3.774 3.346 4.935 2.25 5.629-2.426 1.537-3.546.994-6.38-3.096-1.524-2.2-3.07-4-3.436-4-1.535 0-3.064 2.594-3.064 5.2 0 2.328-.426 2.8-2.526 2.8h-2.527z" fill="#bfbfbf"/></svg>