<svg xmlns="http://www.w3.org/2000/svg" viewBox="0 0 140 26" height="26" width="140"><path d="M.75 25.438C.337 25.014 0 19.117 0 12.333V0l7.25.015c3.987.008 8.375.58 9.75 1.273 3.01 1.515 3.863 6.1 1.601 8.6-1.406 1.554-1.367 1.868.425 3.402 2.987 2.558 2.667 8.21-.586 10.341-2.72 1.782-16.36 3.176-17.69 1.807zm14.235-4.929c1.481-.915 1.24-4.077-.415-5.451-.787-.653-3.121-1.046-5.187-.873-3.531.296-3.752.51-3.661 3.565.053 1.788.137 3.445.187 3.683.13.616 7.857-.17 9.076-.924zM13.559 9.56c3.033-2.253.748-5.06-4.119-5.06-3.548 0-3.833.21-3.741 2.75.055 1.512.145 2.975.2 3.25.22 1.1 5.84.41 7.659-.941zm12.747 14.028c-4.055-3.488-4.055-10.686 0-14.174 3.357-2.887 8.537-3.184 11.597-.663 2.149 1.77 4.399 7.615 3.339 8.675-.316.316-3.425.575-6.909.575-6.783 0-7.825.976-3.833 3.592 2.304 1.51 2.693 1.511 4.965.023 5.047-3.307 7.529-1.329 2.9 2.312-3.576 2.813-8.557 2.672-12.06-.34zM36 13.535C36 12.283 33.182 10 31.637 10 30.774 10 28 13.105 28 14.071c0 .511 1.8.929 4 .929 2.846 0 4-.423 4-1.465zM44 13C44-.054 44.015-.137 46.25.18c1.93.275 2.25.924 2.25 4.571 0 4.122.729 5.306 2 3.249.34-.55 2.156-1 4.036-1 5.017 0 6.638 3.014 6.262 11.648-.271 6.238-.5 6.88-2.548 7.172-2.128.302-2.25-.023-2.265-6-.018-7.392-.836-9.119-4.098-8.657-2.199.31-2.426.888-2.887 7.337-.451 6.32-.719 7.031-2.75 7.32-2.235.317-2.25.234-2.25-12.82zm20.655 11.171c-.91-1.006-1.655-2.58-1.655-3.5C63 18.161 66.66 15 69.566 15c3.614 0 6.473-1.735 5.79-3.515C74.617 9.56 70.602 9.57 69 11.5c-1.588 1.913-5 1.952-5 .057C64 9.212 68.142 7 72.531 7c6.352 0 7.254 1.268 7.644 10.75.33 7.997.27 8.25-1.918 8.25C77.016 26 76 25.534 76 24.965c0-.714-.6-.714-1.934 0-3.006 1.609-7.586 1.222-9.411-.794zm8.96-1.936c.614-.404 1.453-1.814 1.865-3.133.71-2.276.58-2.364-2.584-1.731-4.042.808-5.359 1.981-4.56 4.062.63 1.64 3.374 2.057 5.28.802zM83 16.5c0-9.467.009-9.5 2.5-9.5 1.375 0 2.5.41 2.5.913 0 .515 1.232.448 2.824-.153 3.524-1.33 7.875-.318 8.563 1.992.286.962.622 4.898.747 8.748.207 6.395.048 7.026-1.838 7.304-1.89.28-2.098-.295-2.466-6.808-.444-7.864-1.86-9.88-5.324-7.589-1.612 1.067-2.064 2.63-2.302 7.96-.28 6.295-.42 6.633-2.75 6.633C83.021 26 83 25.92 83 16.5zm22.455 7.045c-3.468-3.468-3.468-10.622 0-14.09C109.913 4.995 120 7.108 120 12.5c0 2.157-3.258 1.847-5.268-.5-2.028-2.369-2.732-2.452-5.24-.617C105.766 14.106 107.841 23 112.2 23c.45 0 1.59-.9 2.531-2 .942-1.1 2.728-2 3.969-2 2.016 0 2.14.254 1.167 2.39-2.265 4.97-10.384 6.185-14.413 2.155zm19.85.042c-2.329-2.004-2.805-3.207-2.805-7.087s.476-5.083 2.806-7.087C131.046 4.476 140 7.853 140 14.955V18h-6.5c-6.355 0-7.228.392-5.735 2.573 1.34 1.957 3.952 2.287 6.725.848 5.48-2.843 7.47-1.108 2.875 2.506-3.576 2.813-8.557 2.672-12.06-.34zM135 13.535c0-1.252-2.818-3.535-4.363-3.535-.863 0-3.637 3.105-3.637 4.071 0 .511 1.8.929 4 .929 2.846 0 4-.423 4-1.465zM27 3c0-.55 2.25-1 5-1s5 .45 5 1-2.25 1-5 1-5-.45-5-1z" fill="#bfbfbf"/></svg>