<svg xmlns="http://www.w3.org/2000/svg" viewBox="0 0 496 496"><path d="M408 472c0 12-13.6 24-24.8 24H112.8c-11.2 0-24.8-12.8-24.8-24V24c0-12 13.6-24 24.8-24h270.4C394.4 0 408 12.8 408 24v448z" fill="#dde9f2"/><path d="M88 24c0-16 8.8-24 20-24h274.4c12 0 25.6 12.8 25.6 24v448c0 12-13.6 24-24.8 24H112" fill="#cddce0"/><path d="M408 467.2c0 11.2-13.6 20.8-24.8 20.8H112.8c-11.2 0-24.8-8.8-24.8-20.8V29.6C88 18.4 101.6 8 112.8 8h270.4C394.4 8 408 18.4 408 29.6v437.6z" fill="#fff"/><path d="M112 8h271.2C394.4 8 408 18.4 408 29.6v437.6c0 11.2-13.6 20.8-24.8 20.8" fill="#dde9f2"/><path d="M384.352 436c.018 10.4-5.752 10.695-16.152 10.712l-235.2.371c-10.008.016-20.631-1.483-20.648-11.083l-.705-393.6C111.628 32 119.628 32 130.028 32h235.2c10.4 0 18.4 0 18.42 10.4z" fill="#c0cfd8"/><circle cx="248" cy="19.2" r="4" fill="#27d68a"/><path d="M248 14.4c2.4 0 4 1.6 4 4s-1.6 4.8-4 4.8" fill="#15af83"/><ellipse transform="rotate(-80.538 245.606 17.575)" cx="245.606" cy="17.576" rx="1.6" ry=".8" fill="#cfffef"/><circle cx="248" cy="469.6" r="14.4" fill="#ffd836"/><path d="M248 455.2c8 0 14.4 6.4 14.4 14.4S256 484 248 484" fill="#e5a923"/><circle cx="248" cy="469.6" r="11.2" fill="#fff"/><path d="M248 458.4c6.4 0 11.2 4.8 11.2 11.2 0 6.4-4.8 11.2-11.2 11.2" fill="#dde9f2"/></svg>