<svg xmlns="http://www.w3.org/2000/svg" viewBox="0 0 107.87112 25.05583" height="25.056" width="107.871"><path d="M41.764 23.753c0-.669 2.032-3.279 4.516-5.8l4.516-4.585-3.766-1.71c-2.071-.939-4.606-2.871-5.634-4.293-1.604-2.22-1.686-2.927-.581-4.991C41.555.992 42.987-.018 44.183 0c2.68.04 7.577 4.34 7.597 6.67.022 2.585 1.574 4.67 2.876 3.865.614-.379.864-1.693.555-2.92-.36-1.44.211-3.213 1.61-4.992C58.664.281 59.615-.09 63.128.167c3.97.29 4.149.448 4.44 3.937.246 2.954-.2 4.032-2.385 5.75-1.479 1.163-3.726 2.115-4.995 2.115-3.827 0-3.558 1.452 1.12 6.042 4.99 4.898 5.604 6.958 2.073 6.958-1.501 0-3.686-1.442-5.901-3.894l-3.518-3.893-3.802 3.893c-3.69 3.779-8.396 5.28-8.396 2.678zM3.072 13.221c7.045-.172 18.295-.172 25 .001 6.706.173.942.314-12.808.313-13.75 0-19.236-.142-12.192-.314zm77 0c7.045-.172 18.295-.172 25 .001 6.706.173.942.314-12.808.313-13.75 0-19.236-.142-12.192-.314z" fill="#fefefe"/></svg>