<svg xmlns="http://www.w3.org/2000/svg" viewBox="0 0 63.063999 39.804306" height="39.804" width="63.064"><path d="M17.266 38.47c-.924-.925-1.68-1.904-1.68-2.176 0-1.723 2.364-4.271 4.961-5.347 3.187-1.32 4.072-3.016 1.573-3.016-.805 0-1.947-.901-2.536-2.003-1.07-1.998-1.078-1.998-3.865.062-4.122 3.048-11.71 2.413-14.401-1.205-2.519-3.387-1.365-7.482 2.928-10.392 2.524-1.711 2.853-2.384 2.049-4.187-1.595-3.575-.02-7.247 3.794-8.84 4.487-1.875 8.505-1.818 11.33.162 3.044 2.131 2.667 6.761-.588 7.223-2.752.391-4.053-2.298-2.395-4.952.984-1.576.871-1.868-.72-1.868-2.54 0-4.109 2.091-4.81 6.41-.564 3.48-.486 3.59 2.548 3.59 1.722 0 3.131.45 3.131 1s-1.564 1-3.477 1c-2.602 0-3.887.627-5.11 2.493-2.977 4.543.289 9.71 4.996 7.904.929-.357 3.018-3.28 4.642-6.498 3.623-7.176 6.292-8.705 15.321-8.774 5.769-.044 6.723.187 6.217 1.504-1.424 3.71-1.743 6.371-.765 6.371.573 0 1.323-.888 1.668-1.974 1.257-3.96 5.592-5.883 13.314-5.908 3.957-.012 7.194.11 7.194.273 0 .163-.9 2.912-2 6.11-1.1 3.196-2 6.642-2 7.656 0 2.714 1.862 2.242 2.59-.657.345-1.375 1.005-2.5 1.467-2.5 1.46 0-1.185 5.998-3.096 7.021-2.733 1.463-6.946 1.182-7.594-.506-.504-1.315-.814-1.315-2.69 0-2.76 1.933-7.344 1.903-8.44-.055-1.371-2.451-3.565-.779-5.881 4.484-2.509 5.699-5.726 8.118-11.69 8.79-3.179.359-4.743.046-5.985-1.196zm10.21-2.789a104.935 104.935 0 0 0 1.566-4.572c.712-2.285.676-2.298-2.245-.787-2.925 1.512-4.212 3.404-4.212 6.19 0 2.323 3.964 1.65 4.891-.83zm3.4-18.125c1.055-3.162 1.676-5.992 1.38-6.287-1.72-1.72-5.67 5.395-5.67 10.213 0 4.317 2.22 2.284 4.29-3.926zm8.951 2.89c.265-1.383.141-2.515-.273-2.515-.89 0-1.969 2.544-1.969 4.641 0 2.3 1.705.683 2.242-2.126zm12.05-2.89c1.054-3.162 1.675-5.992 1.379-6.287-1.72-1.72-5.67 5.395-5.67 10.213 0 4.317 2.22 2.284 4.29-3.926z" fill="#c6af84"/></svg>