<svg xmlns="http://www.w3.org/2000/svg" viewBox="0 0 47.666218 45.993374" height="45.993" width="47.666"><path d="M22.823 45.818c-1.472-.219-3.208-1.038-3.859-1.821-1.647-1.985 2.48-3.447 9.851-3.49l5.685-.034-2.5-1.978a813.812 813.812 0 0 1-6.225-5.003c-2.885-2.341-5.192-3.2-10.22-3.806C9.075 28.906 5 26.666 5 23.885c0-2.84 6.24-1.152 10.679 2.887 1.198 1.09 2.644 1.821 3.213 1.625 1.31-.452-4.717-8.377-7.392-9.719-1.1-.551-1.447-1.033-.771-1.07.946-.053.967-.642.09-2.568-.627-1.375-1.524-2.5-1.994-2.5-2.741 0-6.259-10.996-3.97-12.41 1.63-1.008 5.138 4.05 5.997 8.649.475 2.542 1.864 6.116 3.086 7.941l2.222 3.32-.72-3c-.9-3.757-.649-8.691.501-9.841 1.8-1.8 3.209 3.423 2.605 9.66-.592 6.106-.552 6.235 3.345 10.68 4.448 5.073 6.433 4.88 3.223-.315-2.374-3.84-2.754-10.258-.764-12.877 1.175-1.546 1.422-1.46 2.853 1 2.304 3.961 3.02 8.477 1.837 11.588-1.691 4.448-.355 6.991 5.553 10.572 6.14 3.721 8.051 3.39 4.196-.728-1.41-1.506-2.876-3.864-3.256-5.24-.38-1.374-.911-3.287-1.18-4.25-.816-2.927 2.315-2.024 4.727 1.363 1.22 1.712 2.344 4.907 2.5 7.1.337 4.718.38 4.773 4.62 5.886 2.456.645 1.894.714-2.2.27-8.405-.914-9.978-.733-12.328 1.416-2.535 2.318-5.12 3.046-8.849 2.494zM5.357 17.548C3.367 16.745 0 12.916 0 11.456c0-.351 1.054-.437 2.342-.191 3.308.632 8.135 4.694 7.26 6.11-.828 1.34-1.305 1.36-4.245.173z" fill="#cecece"/></svg>