<svg xmlns="http://www.w3.org/2000/svg" viewBox="0 0 458.667 458.667"><path d="M283.733 85.333c23.467 0 42.667-19.2 42.667-42.667C326.4 19.2 307.2 0 283.733 0s-42.667 19.2-42.667 42.667 19.201 42.666 42.667 42.666zm117.334 160v-42.667c-39.467 0-73.6-21.333-92.8-52.267L288 116.267C280.533 103.467 266.667 96 251.733 96c-5.333 0-10.667 1.067-16 3.2l-112 45.867v100.267H166.4v-71.467l37.333-14.933-33.067 171.733L66.133 310.4 57.6 352s149.333 28.8 149.333 29.867L227.2 288l45.867 42.667v128h42.667V297.6L272 253.867l12.8-64c27.733 34.133 69.333 55.466 116.267 55.466z"/></svg>