<svg xmlns="http://www.w3.org/2000/svg" viewBox="0 0 214.305 214.305"><path d="M22.169 181.049h169.966a3.695 3.695 0 0 0 3.695-3.695c0-43.902-32.078-80.436-74.021-87.445 2.349-2.868 3.818-6.482 3.818-10.47 0-9.169-7.459-16.627-16.627-16.627S92.373 70.27 92.373 79.439c0 3.764 1.305 7.2 3.421 9.99-43.548 5.597-77.319 42.88-77.319 87.926a3.693 3.693 0 0 0 3.694 3.694zM109 70.201c5.095 0 9.237 4.144 9.237 9.237s-4.142 9.237-9.237 9.237-9.237-4.144-9.237-9.237c0-5.092 4.142-9.237 9.237-9.237zm-1.847 25.865c43.585 0 79.264 34.481 81.205 77.593H25.948c1.941-43.112 37.62-77.593 81.205-77.593z"/><path d="M81.609 107.988c-17.601 6.484-31.966 19.296-40.449 36.074a3.696 3.696 0 0 0 6.596 3.334c7.635-15.106 20.564-26.638 36.408-32.473a3.695 3.695 0 1 0-2.555-6.935zm121.611 80.451H0v7.389h11.085v14.78h7.39v-14.78h177.356v14.78h7.389v-14.78h11.085v-7.389zM97.295 44.09c-.83 3.181-3.684 4.57-3.767 4.61a3.693 3.693 0 0 0-1.869 4.878 3.693 3.693 0 0 0 4.879 1.873c.617-.276 6.098-2.881 7.866-9.329 1.49-5.443-.209-11.66-5.052-18.48-2.865-4.036-3.861-7.491-2.959-10.266 1.422-4.395 7.202-6.428 7.357-6.482a3.695 3.695 0 0 0 2.346-4.658 3.708 3.708 0 0 0-4.662-2.358c-.386.126-9.421 3.175-12.052 11.159-1.692 5.133-.364 10.812 3.944 16.881 3.416 4.814 4.791 9.024 3.969 12.172zm23.522-5.191c-.466 1.835-2.143 2.675-2.162 2.685a3.693 3.693 0 0 0-1.869 4.878 3.693 3.693 0 0 0 4.879 1.873c.491-.22 4.86-2.295 6.26-7.415 1.165-4.249-.115-9.039-3.807-14.235-1.288-1.815-2.681-4.42-2.006-6.519.725-2.246 3.623-3.681 4.684-4.047a3.691 3.691 0 0 0 2.342-4.657 3.708 3.708 0 0 0-4.662-2.358c-.747.245-7.347 2.569-9.374 8.725-1.332 4.041-.325 8.458 2.991 13.132 2.284 3.219 3.226 5.965 2.724 7.938z"/></svg>