<svg xmlns="http://www.w3.org/2000/svg" viewBox="0 0 496.149 496.149"><path d="M282.476.149c-1.551-.059-3.102-.1-4.654-.124C162.961-1.748 68.41 89.928 66.636 204.789l-52.96 123.52 52.96 23.84v112l128-16v48h32v-80l-128 16v-101.12l-44.64-19.04 43.04-100.48v-3.36a175.999 175.999 0 0 1 55.52-126.72 177.601 177.601 0 0 1 128.8-52.32c91.863 5.508 165.324 78.42 171.52 170.24a175.998 175.998 0 0 1-44.16 123.52l-4.96 5.92 32 165.6 29.76-5.92-28.48-150.72a207.995 207.995 0 0 0 45.279-121.748C486.738 101.212 397.267 4.571 282.476.149z"/></svg>