<svg xmlns="http://www.w3.org/2000/svg" viewBox="0 0 43.875519 43.555786" height="43.556" width="43.876"><path d="M7.94 39.254c0-3.752-.503-5.351-2.14-6.809-1.179-1.047-2.97-3.705-3.98-5.905-3.54-7.708-1.925-14.528 4.896-20.683 8.654-7.81 21.793-7.81 30.447 0 6.848 6.179 8.43 12.946 4.863 20.8-3.202 7.051-10.576 11.427-19.564 11.609-3.252.065-6.257.862-8.523 2.258a451.136 451.136 0 0 1-4.75 2.896c-.93.55-1.25-.515-1.25-4.166zM19.745 35.7c3.235.846 11.212-1.442 14.947-4.286C47.662 21.534 39.35 3.04 21.94 3.04c-7.91 0-15.787 4.702-18.117 10.816-2.242 5.882-.273 13.159 4.597 16.99 1.752 1.378 2.52 2.954 2.52 5.17v3.188l3.301-2.04c2.004-1.239 4.167-1.814 5.504-1.464zM14.19 24.79c.283-.848 2.773-1.25 7.75-1.25 4.978 0 7.468.402 7.75 1.25.311.932-1.66 1.25-7.75 1.25-6.088 0-8.06-.318-7.75-1.25zm-3.25-8.25c0-1.242 1.89-1.5 11-1.5 9.112 0 11 .258 11 1.5 0 1.243-1.888 1.5-11 1.5-9.11 0-11-.257-11-1.5z" fill="#171717"/></svg>