<svg xmlns="http://www.w3.org/2000/svg" viewBox="0 0 456.339 456.339" width="512" height="512"><g fill="#FFF"><path d="M195.155 337.833c-1.93 0-3.875-.42-5.693-1.266a13.433 13.433 0 0 1-7.732-12.162v-192.47a13.427 13.427 0 1 1 22.024-10.316l115.482 96.235a13.425 13.425 0 0 1 0 20.632l-115.482 96.235a13.426 13.426 0 0 1-8.599 3.112zm13.432-177.23v135.134l81.079-67.567-81.079-67.567z"/><path d="M227.771 456.336c-38.232.007-76.687-9.533-111.516-29.143-6.462-3.637-8.753-11.827-5.112-18.289 3.633-6.462 11.823-8.756 18.289-5.112 78.345 44.103 177.517 30.465 241.161-33.2 78.533-78.534 78.533-206.31 0-284.844-78.534-78.547-206.321-78.54-284.851 0-78.53 78.534-78.53 206.31 0 284.844 5.245 5.245 5.245 13.75 0 18.995-5.238 5.245-13.743 5.245-18.988 0-89.003-89.01-89.003-233.824 0-322.834 89.007-88.996 233.817-89.003 322.834 0 89.003 89.01 89.003 233.824 0 322.834-43.845 43.844-102.566 66.749-161.817 66.749z"/></g></svg>