<?xml version="1.0" standalone="no"?>
<!DOCTYPE svg PUBLIC "-//W3C//DTD SVG 20010904//EN"
 "http://www.w3.org/TR/2001/REC-SVG-20010904/DTD/svg10.dtd">
<svg version="1.0" xmlns="http://www.w3.org/2000/svg"
 width="754.000000pt" height="754.000000pt" viewBox="0 0 754.000000 754.000000"
 preserveAspectRatio="xMidYMid meet">
<metadata>
Created by potrace 1.11, written by Peter Selinger 2001-2013
</metadata>
<g transform="translate(0.000000,754.000000) scale(0.100000,-0.100000)"
fill="#000000" stroke="none">
<path d="M5728 5039 c-15 -16 -24 -29 -21 -29 3 0 -7 -10 -23 -22 -16 -12 -31
-25 -34 -29 -3 -4 -34 -6 -70 -5 l-65 3 -64 -63 c-35 -35 -67 -61 -71 -59 -10
6 -160 -141 -160 -157 0 -6 -3 -9 -6 -6 -6 7 -114 -100 -114 -113 0 -4 -7 -5
-17 -2 -12 5 -14 3 -8 -8 21 -33 3 -73 -56 -132 -32 -31 -59 -62 -59 -68 0 -6
-5 -7 -12 -3 -8 5 -9 2 -5 -9 3 -9 2 -19 -4 -22 -5 -4 -6 -11 -3 -17 4 -6 7
-30 7 -54 0 -39 -5 -49 -47 -89 l-47 -44 -2 -176 c-1 -111 2 -175 8 -175 7 0
7 -3 0 -8 -6 -4 -10 -69 -10 -157 0 -88 4 -153 10 -157 7 -5 7 -8 0 -8 -5 0
-10 -17 -9 -37 1 -26 7 -39 20 -44 10 -4 16 -8 13 -8 -4 -1 12 -20 35 -43 25
-25 36 -43 28 -45 -6 -3 -9 -9 -6 -15 4 -6 6 -32 5 -59 -1 -47 2 -50 61 -109
34 -33 59 -62 56 -66 -9 -8 24 -44 39 -44 8 0 10 -7 6 -17 -3 -10 -3 -15 1
-11 5 4 35 -21 69 -55 33 -34 65 -61 71 -59 6 2 8 1 4 -3 -4 -4 44 -58 106
-119 111 -111 112 -112 157 -110 42 2 47 -1 101 -57 l57 -59 582 0 582 0 32
34 c18 19 35 32 39 29 3 -4 6 1 6 10 0 10 8 17 19 17 10 0 24 6 30 14 7 9 29
13 60 12 45 -1 52 -5 104 -59 l56 -57 162 0 c89 0 159 3 156 6 -3 4 5 15 18
26 23 18 25 26 25 105 0 78 -2 87 -27 113 -15 16 -31 26 -36 23 -6 -3 -7 -1
-3 5 3 6 -3 17 -14 25 -11 7 -17 17 -13 20 3 4 1 7 -5 7 -6 0 -28 17 -49 38
-36 36 -38 43 -38 97 0 55 2 61 40 100 22 22 42 40 45 39 3 -2 6 27 6 63 1 62
3 67 38 99 20 19 33 34 29 34 -4 0 0 5 10 11 16 9 17 42 17 455 0 461 -1 474
-40 474 -6 0 -8 5 -5 10 3 6 -1 10 -9 10 -9 0 -16 6 -16 14 0 8 -6 16 -12 19
-9 3 -13 27 -12 76 l1 72 -68 67 c-38 36 -69 72 -69 79 0 6 -28 40 -62 74 -35
34 -62 67 -60 73 2 6 1 8 -3 4 -4 -3 -37 24 -75 62 -38 38 -77 70 -87 72 -10
2 -17 9 -16 16 2 6 -4 9 -12 6 -8 -4 -15 -1 -15 4 0 14 -48 62 -61 62 -6 0 -7
5 -4 10 6 10 1 11 -54 14 -19 1 -41 13 -62 34 -17 17 -35 32 -40 32 -5 0 -9 5
-9 11 0 6 -6 17 -14 25 -12 12 -91 14 -498 13 l-483 -1 -27 -29z m232 -324 c0
6 44 10 112 10 64 0 116 -4 120 -10 5 -7 8 -7 8 0 0 11 227 12 254 2 9 -4 16
-3 16 1 0 5 14 7 31 6 22 -2 41 -13 61 -36 16 -18 33 -32 38 -30 6 1 10 -3 10
-9 0 -16 41 -51 54 -46 13 4 47 -29 38 -37 -3 -3 2 -6 11 -6 9 0 17 -4 17 -9
0 -5 18 -27 40 -49 22 -22 40 -38 40 -36 0 2 14 -10 30 -28 17 -17 30 -35 30
-39 0 -5 7 -9 16 -9 8 0 12 -4 9 -10 -3 -5 2 -10 11 -10 10 0 14 -3 11 -6 -4
-4 9 -19 28 -34 19 -15 32 -30 29 -33 -3 -3 4 -8 15 -12 12 -3 21 -12 21 -20
0 -8 9 -17 20 -20 11 -3 20 -13 20 -21 0 -8 6 -14 13 -14 10 0 13 -26 12 -104
0 -58 1 -103 3 -101 6 6 62 -54 62 -66 0 -6 7 -8 16 -5 8 3 12 2 9 -4 -3 -6 1
-13 10 -16 13 -5 13 -9 3 -22 -11 -13 -10 -15 5 -9 15 6 16 4 7 -13 -8 -15 -8
-20 2 -21 10 0 10 -2 0 -6 -6 -2 -9 -9 -6 -15 4 -6 7 -77 6 -158 0 -137 -2
-150 -21 -169 -12 -12 -21 -18 -21 -14 0 4 -11 -7 -23 -25 -13 -17 -26 -30
-28 -27 -3 2 -4 -15 -4 -38 1 -33 -4 -47 -25 -67 -26 -24 -30 -25 -173 -25
-81 0 -147 -4 -147 -8 1 -12 -27 -37 -41 -37 -7 0 -9 -3 -6 -7 4 -3 -8 -17
-25 -30 -18 -12 -28 -23 -24 -23 5 0 -6 -13 -24 -30 -18 -16 -27 -30 -20 -30
10 0 10 -3 0 -15 -7 -8 -9 -15 -4 -15 10 0 9 -173 -1 -189 -3 -6 -2 -11 3 -11
19 0 -1 -43 -32 -70 -24 -22 -35 -26 -53 -19 -13 5 -23 5 -23 0 0 -8 -48 -7
-56 2 -3 3 -21 1 -40 -3 -20 -5 -34 -4 -34 2 0 5 -5 6 -12 2 -17 -11 -98 -10
-98 0 0 6 -5 5 -12 -2 -8 -8 -15 -9 -25 -1 -7 7 -13 7 -13 2 0 -5 -9 -9 -20
-9 -11 0 -20 4 -20 8 0 5 -9 4 -20 -2 -14 -8 -20 -8 -20 0 0 6 -5 8 -12 4 -16
-10 -68 -11 -68 -1 0 5 -5 5 -12 1 -16 -10 -98 -11 -98 0 0 4 -7 3 -15 -4 -12
-10 -15 -10 -15 0 0 9 -4 9 -12 2 -17 -13 -62 4 -52 19 4 7 3 9 -3 6 -6 -4
-30 15 -55 41 -24 27 -49 47 -56 44 -13 -4 -42 21 -42 37 0 6 -7 11 -15 11 -8
0 -15 7 -15 15 0 8 -6 15 -12 16 -7 0 -30 21 -50 45 -21 25 -38 42 -38 39 0
-4 -7 0 -15 9 -8 8 -15 19 -15 25 0 6 -6 11 -13 11 -8 0 -20 11 -27 25 -7 14
-17 25 -22 25 -18 0 -38 29 -38 54 0 18 -18 44 -58 84 l-59 59 1 384 1 385 58
57 c32 31 55 61 52 67 -3 5 -2 10 4 10 6 0 8 7 5 15 -7 16 38 65 58 65 6 0 9
2 6 5 -3 3 45 55 106 117 110 109 112 111 161 113 47 3 54 7 113 66 50 49 66
59 73 48 5 -8 9 -9 9 -4z"/>
<path d="M1810 5034 c0 -7 -9 -16 -20 -19 -20 -6 -22 -10 -24 -55 -1 -14 -5
-31 -9 -37 -5 -7 -5 -13 0 -13 10 0 10 -116 0 -126 -3 -4 -3 -12 1 -18 10 -17
9 -70 -3 -78 -6 -5 -5 -8 3 -8 9 0 10 -5 2 -19 -5 -11 -6 -22 -2 -25 10 -6 8
-68 -2 -84 -3 -6 -3 -13 2 -16 5 -3 7 -20 5 -38 -4 -35 -4 -44 0 -98 1 -19 -1
-43 -6 -52 -4 -10 -4 -18 1 -18 10 0 9 -51 -2 -68 -4 -7 -3 -12 1 -12 12 0 10
-63 -2 -72 -7 -5 -6 -8 1 -8 12 0 12 -49 0 -68 -4 -7 -3 -12 1 -12 12 0 10
-63 -2 -72 -7 -5 -6 -8 1 -8 12 0 12 -49 0 -68 -4 -7 -3 -12 1 -12 12 0 10
-63 -2 -72 -7 -5 -6 -8 1 -8 12 0 12 -49 0 -68 -4 -7 -4 -12 1 -12 4 0 8 -32
8 -70 1 -42 -3 -70 -10 -70 -7 0 -7 -3 0 -8 14 -9 14 -65 0 -74 -7 -6 -7 -10
1 -15 6 -5 9 -21 7 -38 -5 -46 -5 -48 1 -74 4 -18 -3 -32 -28 -57 -19 -19 -32
-34 -29 -34 3 0 1 -6 -5 -13 -6 -6 -9 -27 -8 -45 1 -17 -3 -32 -9 -32 -19 0
-39 -44 -39 -89 0 -35 -6 -50 -28 -73 -15 -15 -33 -28 -39 -28 -7 0 -10 -2 -7
-6 7 -7 -189 -204 -203 -204 -6 0 -7 -4 -4 -10 3 -5 0 -10 -7 -11 -7 0 -23 -2
-35 -3 -13 -2 -23 2 -23 7 0 5 -6 5 -13 -2 -10 -8 -17 -7 -25 1 -7 7 -12 8
-12 2 0 -5 -9 -10 -20 -10 -11 0 -20 4 -20 8 0 5 -9 4 -20 -2 -14 -8 -20 -8
-20 0 0 6 -5 8 -12 4 -16 -10 -98 -11 -98 0 0 4 -6 4 -13 -2 -7 -6 -19 -7 -26
-3 -7 5 -27 5 -45 1 -18 -4 -42 -3 -54 1 -12 5 -22 5 -22 0 0 -9 -31 -8 -48 3
-6 4 -12 3 -12 -1 0 -9 -74 -8 -90 2 -6 3 -10 2 -10 -3 0 -5 -12 -7 -27 -5
-16 2 -40 4 -54 4 -18 -1 -38 12 -67 44 -23 25 -46 45 -52 45 -5 0 -10 4 -10
9 0 5 -29 38 -65 74 -36 36 -65 63 -65 60 0 -2 -11 9 -25 25 -14 17 -25 35
-25 41 0 14 -101 117 -111 114 -3 -1 -6 162 -5 362 1 237 -3 365 -9 365 -7 0
-7 3 0 8 6 4 10 175 10 477 0 302 -4 473 -10 477 -6 5 -6 8 1 8 6 0 10 10 9
23 -2 12 -8 21 -14 20 -6 -2 -11 2 -11 7 0 27 -36 45 -90 44 -78 -2 -82 -3
-75 -14 3 -5 0 -10 -8 -10 -9 0 -14 -9 -13 -22 1 -14 -4 -22 -11 -20 -10 1
-13 -189 -13 -927 l0 -928 35 -30 c19 -17 35 -36 35 -43 0 -7 3 -10 6 -7 14
14 43 -35 40 -66 -3 -26 3 -38 38 -72 22 -22 45 -39 49 -37 5 1 6 -2 2 -8 -3
-5 -1 -10 5 -10 6 0 8 -4 5 -10 -3 -5 -2 -10 3 -10 5 0 35 -25 67 -55 31 -30
62 -55 68 -55 6 0 35 -26 65 -57 51 -54 56 -57 103 -57 45 1 51 -3 95 -48 25
-26 50 -48 56 -48 5 0 6 -4 3 -10 -4 -7 102 -10 309 -10 288 0 316 1 316 17 0
9 3 14 6 11 3 -4 26 15 51 40 43 44 47 47 103 47 40 1 63 7 75 18 9 9 20 17
25 17 5 0 11 9 15 19 3 11 15 23 26 26 10 4 19 10 19 15 0 12 68 78 75 72 3
-3 5 -1 5 5 0 12 79 93 91 93 4 0 10 8 13 18 4 11 18 25 31 32 14 7 25 17 25
22 0 5 7 17 16 25 8 9 12 19 7 22 -10 8 -10 32 1 50 7 11 6 12 -5 6 -21 -13 7
21 66 80 l51 50 -2 915 c-1 503 -2 921 -3 928 0 6 -7 12 -15 12 -8 0 -17 8
-20 18 -5 16 -17 19 -76 19 -50 0 -70 -4 -70 -13z"/>
<path d="M2744 4925 c-27 -27 -30 -36 -31 -92 0 -34 4 -60 9 -57 4 3 8 1 8 -5
0 -14 49 -61 54 -52 6 8 60 6 75 -4 6 -3 11 -3 11 2 0 4 45 8 100 8 60 0 100
-4 100 -10 0 -7 3 -7 8 0 4 6 55 10 117 10 62 0 113 -4 117 -10 5 -7 8 -7 8 0
0 11 227 12 254 2 9 -4 16 -3 16 1 0 9 54 7 69 -3 6 -3 11 -2 11 2 0 5 11 8
25 8 15 -1 43 -20 72 -48 26 -26 51 -47 55 -47 4 0 8 -6 9 -12 0 -7 21 -30 45
-50 25 -21 43 -38 40 -38 -3 0 5 -10 17 -23 12 -13 25 -22 30 -20 4 2 7 -3 7
-12 0 -9 5 -13 10 -10 6 3 10 0 10 -9 0 -8 6 -16 12 -18 19 -7 18 -458 0 -458
-7 0 -10 -4 -7 -10 3 -5 1 -10 -5 -10 -13 0 -25 -11 -58 -54 -12 -16 -22 -26
-22 -22 0 3 -9 -2 -19 -11 -11 -9 -18 -20 -15 -25 3 -4 0 -8 -5 -8 -15 0 -51
-37 -43 -44 3 -3 -2 -6 -12 -6 -9 0 -19 -6 -22 -13 -3 -8 -17 -11 -37 -9 -30
3 -40 -3 -93 -55 l-59 -60 -534 1 c-496 1 -534 0 -546 -16 -6 -10 -14 -16 -16
-15 -2 2 -12 -5 -21 -15 -10 -10 -14 -18 -10 -18 9 0 8 -78 -1 -87 -4 -3 -2
-14 4 -25 7 -14 7 -23 -1 -33 -6 -7 -7 -16 -2 -18 4 -3 7 -27 5 -54 -2 -26 -4
-54 -3 -60 0 -7 0 -20 0 -28 0 -31 0 -41 3 -75 2 -19 -2 -38 -7 -42 -8 -5 -7
-8 1 -8 8 0 9 -9 3 -29 -4 -15 -4 -34 0 -40 8 -13 5 -59 -4 -68 -3 -3 -1 -14
5 -25 7 -14 7 -23 -1 -33 -6 -7 -7 -16 -2 -18 4 -3 7 -27 5 -54 -2 -26 -4 -54
-3 -60 0 -7 0 -20 0 -28 0 -31 0 -41 3 -75 2 -19 -2 -38 -7 -42 -8 -5 -7 -8 1
-8 8 0 9 -9 3 -29 -4 -15 -4 -34 1 -42 4 -8 3 -19 -3 -26 -6 -8 -7 -13 -1 -13
6 0 9 -14 7 -31 -2 -18 0 -28 6 -24 6 4 13 0 16 -8 4 -10 26 -14 87 -14 133 0
122 -40 122 441 l0 410 27 28 c16 16 28 25 28 21 0 -4 7 3 16 15 12 17 19 20
34 12 22 -12 33 -13 27 -2 -3 4 17 7 44 7 27 0 49 -3 49 -7 0 -4 12 -3 26 2
16 7 23 7 19 0 -4 -7 2 -7 19 0 14 5 28 5 31 1 3 -5 20 -6 38 -2 18 5 41 6 52
4 19 -4 50 -4 108 1 15 1 27 -1 27 -6 0 -4 12 -3 26 2 16 7 23 7 19 0 -4 -7 2
-7 19 0 14 5 28 5 31 1 3 -5 20 -6 38 -2 35 8 51 7 81 -5 11 -4 17 -4 14 2 -4
5 16 9 43 9 27 0 49 -3 49 -7 0 -4 12 -3 26 2 16 7 23 7 19 0 -4 -7 2 -7 19 0
14 5 28 5 31 1 4 -8 60 -1 75 9 3 2 15 -2 28 -9 14 -8 22 -8 22 -1 0 6 25 34
55 63 44 43 61 53 87 53 23 -1 40 7 59 26 14 15 29 25 32 21 4 -3 7 -1 7 6 0
16 45 61 61 61 7 0 10 3 7 6 -4 3 26 38 66 77 70 70 73 74 71 117 -1 42 2 48
57 102 49 48 58 63 61 98 2 24 -1 40 -7 40 -7 0 -8 3 -1 8 6 4 10 14 10 22 0
8 -4 18 -10 22 -6 5 -6 8 1 8 11 0 12 35 1 46 -3 4 -2 16 4 27 8 14 8 18 0 13
-8 -5 -8 0 -3 16 9 25 8 65 -2 75 -3 3 -1 12 5 20 9 9 8 13 0 13 -6 0 -11 6
-11 14 0 8 -9 18 -20 21 -11 3 -20 12 -20 20 0 8 -9 17 -20 20 -13 4 -20 15
-20 31 0 13 -6 24 -13 24 -10 0 -13 20 -11 87 l2 86 -39 37 c-21 20 -36 40
-31 44 4 4 2 6 -4 4 -6 -2 -29 16 -51 39 -22 23 -46 44 -53 45 -7 2 -41 30
-76 63 l-63 60 -578 0 -578 0 -31 -30z"/>
</g>
</svg>
