<svg xmlns="http://www.w3.org/2000/svg" viewBox="0 0 251 60.56575" height="60.566" width="251"><path d="M62.627.328a2024.93 2024.93 0 0 0-16.473.024C3.963.577 3.481.603 1.75 2.712.183 4.624 0 7.567 0 30.907 0 53.97.194 57.181 1.69 58.834c1.609 1.778 3.8 1.853 45.804 1.578l44.115-.289 6.793-3.45c4.425-2.246 10.034-6.516 16.092-12.25 11.836-11.2 12.19-11.224 22.371-1.53 4.2 3.998 8.553 7.935 9.674 8.75 1.121.814-.1-.46-2.713-2.829s-9.138-9.344-14.498-15.5c-5.36-6.155-12.464-13.884-15.787-17.177-3.323-3.293-5.7-4.853-4.6-4.035 1.85 1.376 1.898 1.357.637-.252-.75-.956-.96-1.235-1.545-1.748-.837-.736-1.714-1.512-2.768-1.874-.114-.04-1.133-.426-.36-.025.93.483.476.44.588.257.355-.575-1-.917-1.56-1.296-1.689-1.145-4.375-2.613-5.378-2.924-1.003-.31 0 0 0 0s-.786-.27-1.166-.435c-.342-.15-.66-.348-1-.5a17.128 17.128 0 0 0-1.051-.418 26.43 26.43 0 0 0-1.492-.514 25.827 25.827 0 0 0-1.555-.412c-.998-.237-2.011-.409-3.013-.633-.543-.12-.147-.239-1.624-.385-.581-.057-9.907-.572-25.027-.615z" fill="#5bcc5b"/><path d="M225.06 1.773c-5.599-.006-12.288.018-20.199.069l-43.361.281-5.658 2.78c-3.275 1.608-9.727 6.556-15.319 11.75-12.318 11.439-12.937 11.498-22.826 2.208-1.734-1.629-6.273-4.84-7.705-6.186.093.537 3.349 2.99 3.428 3.513 3.064 2.938 6.318 6.402 10.02 10.658 18.274 21.011 27.873 29.21 37.845 32.326 3.183.995 14.29 1.334 45.393 1.385 36.16.058 41.37-.124 42.75-1.504 1.35-1.35 1.572-5.343 1.572-28.38 0-21.66-.266-27.026-1.389-27.958-.76-.631-7.752-.922-24.55-.942z" fill="#101010"/></svg>